<?xml version="1.0" standalone="no"?>
<!DOCTYPE svg PUBLIC "-//W3C//DTD SVG 20010904//EN"
 "http://www.w3.org/TR/2001/REC-SVG-20010904/DTD/svg10.dtd">
<svg version="1.0" xmlns="http://www.w3.org/2000/svg"
 width="410.000000pt" height="154.000000pt" viewBox="0 0 410.000000 154.000000"
 preserveAspectRatio="xMidYMid meet">

<g transform="translate(0.000000,154.000000) scale(0.100000,-0.100000)"
fill="#000000" stroke="none">
<path d="M1972 1445 c-7 -14 -12 -39 -12 -56 0 -27 -2 -29 -21 -19 -15 9 -24
8 -35 -1 -10 -8 -18 -8 -27 -1 -17 14 -105 -3 -137 -27 -29 -21 -38 -50 -18
-63 10 -7 10 -11 1 -15 -7 -2 -13 -10 -13 -16 1 -17 41 -62 67 -76 20 -10 21
-13 7 -41 -25 -48 -46 -36 -85 50 l-16 35 -7 -39 c-4 -21 -12 -49 -17 -63 -8
-21 -12 -23 -24 -13 -22 18 -30 5 -16 -26 15 -33 6 -46 -25 -38 -30 8 -30 1
-2 -39 15 -21 18 -32 10 -35 -18 -6 -14 -27 8 -47 25 -23 25 -36 1 -83 -29
-56 -91 -79 -91 -34 0 10 -14 34 -31 55 -34 41 -26 49 15 16 15 -12 30 -19 33
-15 10 10 -26 55 -57 71 -17 9 -30 20 -30 25 0 14 13 12 36 -5 10 -8 25 -15
32 -15 34 -1 -39 67 -115 107 -18 9 -33 20 -33 25 0 14 29 9 71 -13 38 -19 72
-18 39 1 -25 14 -100 88 -100 98 0 5 11 13 25 16 14 4 25 13 25 22 0 11 -6 13
-20 9 -30 -10 -63 4 -57 24 4 15 -4 17 -60 17 -57 0 -67 3 -89 27 -14 15 -29
27 -34 27 -6 0 -10 13 -10 28 0 46 -19 63 -62 56 -29 -5 -43 -15 -59 -40 -20
-33 -39 -37 -39 -8 0 19 -16 18 -24 -1 -9 -25 -24 -17 -18 11 l5 26 -32 -16
c-36 -19 -37 -24 -13 -43 16 -13 15 -14 -5 -8 -18 5 -20 2 -16 -15 4 -13 1
-20 -9 -20 -8 0 -29 -7 -46 -16 -45 -22 -44 -61 3 -91 l34 -23 -24 -52 c-29
-61 -31 -90 -10 -108 11 -9 14 -23 10 -44 -6 -28 -1 -35 39 -68 l45 -38 3 27
c2 16 10 29 19 31 12 2 15 -3 12 -21 -3 -14 2 -29 11 -36 19 -16 4 -41 -24
-41 -10 0 -23 -6 -29 -14 -6 -7 -25 -16 -41 -20 -33 -6 -41 -26 -11 -26 10 0
37 7 61 15 31 11 41 12 38 2 -3 -6 -22 -18 -44 -25 -21 -7 -45 -19 -53 -27
-13 -12 -11 -16 14 -25 l28 -11 -24 -16 c-13 -10 -29 -23 -34 -31 -9 -11 -14
-10 -30 8 -14 16 -16 23 -7 32 29 29 4 134 -42 180 l-31 30 -97 -5 c-88 -5
-98 -3 -98 12 0 22 -19 41 -42 41 -9 0 -33 8 -53 17 -30 14 -44 15 -88 6 -34
-7 -58 -7 -71 -1 -32 17 -43 -8 -16 -37 18 -19 34 -25 66 -25 46 0 57 -12 41
-48 -7 -15 -7 -30 2 -48 8 -19 9 -30 1 -39 -20 -24 -49 -12 -82 32 -35 48 -41
45 -53 -24 -4 -24 -8 -43 -10 -43 -1 0 -16 7 -31 15 -16 8 -45 15 -65 15 -19
0 -40 5 -47 12 -24 24 -23 -1 2 -51 29 -57 49 -71 101 -71 51 0 40 -23 -15
-32 -23 -4 -45 -10 -48 -13 -8 -8 79 -85 97 -85 11 0 10 3 -4 14 -19 14 -19
15 -2 33 9 11 17 29 17 41 0 15 6 22 19 22 42 0 48 -57 10 -90 -9 -8 -20 -26
-24 -39 -6 -20 -1 -17 32 17 22 23 49 42 60 42 11 0 26 7 33 15 16 19 40 3 40
-27 0 -20 -67 -57 -105 -58 -11 0 -27 -9 -35 -20 -8 -11 -24 -20 -37 -20 -12
0 -25 -5 -28 -10 -3 -6 -30 -10 -60 -10 l-53 0 15 -38 c12 -31 26 -44 70 -66
31 -15 52 -31 47 -35 -5 -4 -30 -14 -57 -21 -51 -14 -53 -16 -36 -54 13 -29
19 -30 228 -46 172 -13 448 -13 529 0 64 11 296 75 472 131 144 46 230 40 284
-20 29 -32 10 -38 -22 -8 -39 37 -83 48 -144 37 -92 -18 -128 -32 -128 -51 0
-29 16 -31 79 -9 95 32 112 28 181 -35 33 -30 65 -55 70 -55 6 0 22 12 37 26
22 22 24 31 18 70 -7 47 2 55 28 26 11 -12 17 -36 17 -70 0 -28 5 -54 11 -58
7 -4 10 6 7 32 -2 29 1 39 12 39 11 0 14 -9 12 -35 -2 -28 0 -32 10 -22 16 16
43 15 57 -1 8 -10 47 -14 146 -16 114 -1 135 1 135 13 0 18 79 66 123 75 23 5
32 13 32 26 0 24 12 45 27 45 10 0 5 -51 -8 -84 -7 -17 21 -44 52 -52 19 -5
33 2 63 29 57 51 106 64 186 48 61 -12 85 -10 85 9 0 9 -76 36 -133 46 -31 5
-50 0 -103 -26 -36 -17 -68 -30 -70 -27 -11 10 52 48 104 63 61 18 48 21 317
-59 167 -49 332 -85 455 -98 150 -17 418 -5 598 26 26 5 32 10 32 32 0 21 -4
24 -22 20 -102 -24 -206 -32 -423 -31 -221 0 -250 2 -365 27 -69 14 -201 49
-295 77 -213 64 -253 69 -324 40 -30 -11 -67 -30 -82 -41 -32 -22 -39 -24 -39
-6 0 6 16 22 35 35 23 14 38 33 42 52 3 16 9 27 14 25 4 -3 5 10 2 30 -7 43 4
46 18 5 6 -16 16 -30 22 -30 6 0 18 -7 28 -16 16 -14 18 -14 29 5 14 27 30 27
23 1 -5 -17 0 -20 26 -20 35 0 36 2 20 33 -7 12 -12 34 -11 49 1 23 -4 28 -23
28 -18 0 -26 -7 -31 -25 -8 -32 -19 -32 -40 1 -12 17 -23 24 -36 21 -12 -4
-18 -1 -15 6 6 20 88 26 162 11 39 -8 142 -35 229 -60 156 -45 304 -75 439
-89 45 -5 67 -12 67 -21 0 -7 9 -29 21 -49 12 -19 19 -42 16 -49 -4 -10 4 -17
24 -21 38 -9 46 -1 25 21 -21 21 -18 24 17 17 15 -3 32 -14 38 -24 10 -20 79
-28 79 -9 0 6 -3 10 -8 10 -4 0 -13 9 -19 19 -18 29 6 58 35 42 18 -10 22 -9
22 4 0 9 -15 22 -32 30 -32 14 -32 14 -7 15 34 0 85 -38 70 -53 -16 -16 -14
-25 10 -37 15 -8 24 -8 34 0 12 10 11 17 -6 43 -10 18 -23 32 -28 32 -15 0
-71 45 -71 56 0 12 40 48 53 49 4 0 4 -8 -2 -18 -7 -13 -5 -20 12 -29 19 -11
20 -12 4 -13 -40 0 -8 -24 37 -26 43 -3 46 -1 35 13 -12 14 -10 15 20 8 29 -6
33 -5 28 9 -7 17 5 20 37 7 18 -7 17 -9 -10 -28 -16 -11 -44 -28 -62 -37 -19
-10 -32 -19 -30 -21 6 -6 201 -45 205 -41 2 2 -22 13 -53 23 l-57 19 56 32
c56 32 57 33 57 77 0 40 -3 45 -22 45 -17 0 -19 3 -10 12 29 29 4 34 -54 11
-15 -5 -16 -2 -11 25 8 38 4 39 -34 11 -16 -11 -29 -16 -29 -10 0 5 5 13 10
16 19 12 10 35 -12 35 -22 1 -22 1 -4 12 11 6 41 8 72 5 58 -6 65 0 34 28 -23
20 -18 32 17 46 13 5 21 14 18 20 -4 6 -13 8 -19 6 -7 -3 -18 -2 -25 3 -9 5
-5 13 13 28 36 27 33 31 -15 21 -22 -5 -44 -7 -49 -4 -4 3 -4 24 1 46 12 53 3
62 -25 27 -26 -33 -36 -35 -36 -8 0 31 -18 24 -25 -10 -6 -27 -35 -44 -35 -20
0 6 -4 10 -9 10 -6 0 -7 -16 -4 -36 3 -21 2 -35 -3 -33 -69 32 -74 40 -49 73
8 11 15 23 15 27 0 11 -38 -2 -51 -17 -17 -21 -38 -17 -51 11 -16 35 -25 31
-31 -16 -7 -51 -12 -56 -35 -36 -20 18 -42 22 -42 9 0 -5 9 -19 20 -32 11 -13
20 -36 20 -53 0 -25 3 -29 21 -24 20 5 20 5 3 -14 -22 -24 -26 -24 -55 2 l-24
20 23 -6 c19 -6 23 -3 20 11 -1 9 -10 18 -18 19 -9 2 -33 14 -54 29 -46 31
-59 27 -24 -6 14 -13 33 -50 43 -83 21 -73 69 -171 89 -182 18 -10 58 -111 50
-125 -4 -7 -14 -1 -25 13 -15 19 -19 21 -19 7 0 -9 5 -20 10 -23 18 -11 11
-25 -13 -25 -29 0 -72 43 -64 64 4 9 11 16 17 16 23 0 8 19 -17 22 -21 2 -28
9 -28 24 0 11 -7 29 -15 39 -11 14 -12 19 -2 22 17 6 15 23 -4 23 -8 0 -12 5
-9 10 4 6 1 17 -5 25 -7 8 -13 33 -13 55 -1 26 -7 40 -16 40 -11 0 -11 3 0 16
12 15 11 16 -9 10 -18 -6 -21 -4 -15 10 4 12 3 15 -6 10 -8 -5 -18 0 -27 13
-9 12 -20 18 -26 15 -7 -4 -8 -2 -4 5 4 6 22 18 39 25 26 12 28 15 11 15 -12
1 -39 -5 -60 -12 -22 -8 -55 -12 -75 -10 -35 5 -36 6 -34 42 1 20 8 54 15 75
26 80 1 200 -62 288 -22 31 -13 59 23 79 31 16 34 4 3 -15 -38 -25 -22 -31 17
-7 19 12 49 20 69 20 l35 -2 -30 -6 c-38 -8 -95 -42 -95 -57 0 -6 8 -18 18
-27 23 -21 151 -24 171 -4 11 10 11 8 2 -10 -10 -20 -19 -23 -76 -23 -35 0
-66 -4 -69 -9 -11 -17 6 -41 33 -47 14 -3 38 -12 53 -20 32 -17 62 -18 91 -3
22 12 22 12 3 -10 -16 -17 -30 -21 -81 -21 -69 0 -91 -14 -82 -53 5 -17 18
-25 61 -35 30 -7 67 -10 83 -7 25 5 24 4 -7 -10 -24 -12 -51 -15 -87 -12 l-52
5 -7 -34 c-3 -18 -4 -41 0 -49 6 -16 46 -21 46 -6 0 5 17 9 38 9 51 0 112 12
112 22 0 15 -34 20 -67 11 -18 -5 -45 -6 -60 -1 -22 7 -24 8 -7 9 26 1 175 39
183 47 10 10 -24 24 -59 24 -46 0 -27 19 37 35 43 11 45 14 23 19 -15 4 -41 1
-62 -9 -42 -17 -138 -21 -138 -5 0 6 22 10 48 10 38 0 57 6 88 30 21 16 46 30
56 30 14 0 14 4 5 25 -14 30 -30 31 -73 5 l-32 -21 -34 21 -33 20 27 0 c18 0
33 9 48 30 15 22 30 30 51 30 16 0 29 5 29 10 0 6 -7 10 -15 10 -8 0 -15 7
-15 15 0 19 -17 19 -50 0 -14 -8 -35 -14 -48 -15 -21 0 -21 2 10 28 18 16 42
34 53 40 19 10 19 11 2 18 -13 5 -28 -3 -52 -26 -30 -29 -37 -32 -57 -22 l-23
11 26 0 c33 1 53 24 44 51 -5 15 -1 26 12 35 24 18 12 28 -22 19 -15 -4 -30
-17 -35 -30 -10 -26 -14 -27 -45 -15 -12 5 -33 3 -53 -5 -32 -13 -32 -13 -52
26 -11 22 -20 50 -20 64 0 14 -4 27 -9 30 -13 8 -61 -52 -61 -76 0 -32 -25
-15 -26 18 -2 92 -12 108 -34 54 -7 -16 -16 -30 -21 -30 -13 0 -50 21 -76 44
-12 10 -29 16 -38 12 -9 -3 -14 -2 -11 3 5 8 -43 47 -116 94 -81 51 10 -60
125 -153 31 -25 56 -48 56 -52 1 -5 -10 -8 -23 -8 -22 0 -23 -2 -13 -25 13
-26 38 -26 65 1 7 8 23 13 35 13 17 -1 18 -2 5 -6 -21 -5 -24 -23 -5 -24 24
-2 -39 -17 -75 -18 -26 -1 -38 3 -38 13 0 15 -24 28 -34 19 -3 -3 -1 -14 4
-24 14 -26 -3 -33 -45 -18 -31 12 -37 11 -58 -9 -13 -12 -30 -22 -39 -22 -9 0
-20 -6 -26 -13 -12 -14 -10 -70 2 -99 12 -28 2 -52 -27 -66 -23 -11 -27 -19
-25 -53 1 -25 6 -39 15 -39 7 0 13 7 13 15 0 8 8 15 19 15 45 0 78 21 94 61
13 33 20 39 46 39 16 0 33 5 36 10 13 21 53 11 64 -17 6 -16 16 -35 23 -44 10
-14 7 -21 -18 -43 -37 -33 -45 -32 -66 4 -9 17 -21 30 -26 30 -5 0 -12 -32
-16 -72 -3 -39 -8 -73 -9 -74 -8 -9 -113 22 -167 49 -57 28 -66 36 -74 70 -9
33 -7 40 18 66 27 28 27 29 7 36 -26 8 -26 12 -1 50 26 39 25 53 -2 57 -18 2
-23 9 -21 31 2 29 -6 34 -24 16 -15 -15 -33 -2 -33 24 0 12 -4 29 -10 37 -7
12 -10 11 -16 -5 -4 -11 -15 -39 -25 -63 l-18 -43 -25 18 c-48 35 -51 83 -6
83 16 0 36 26 56 70 17 39 -27 90 -91 105 -26 7 -31 7 -52 6 -16 -1 -21 -6
-17 -16 9 -23 -13 -18 -30 7 -12 17 -18 20 -28 10 -23 -23 -38 -13 -38 24 0
64 -12 74 -89 74 -63 0 -69 -2 -79 -25z m118 -8 c0 -18 -21 -37 -40 -37 -20 0
-53 34 -43 43 12 13 83 8 83 -6z m-82 -55 c4 -25 -13 -30 -22 -6 -9 25 -7 36
7 32 6 -3 13 -14 15 -26z m112 -3 c0 -20 -24 -26 -35 -9 -8 13 14 42 26 34 5
-3 9 -14 9 -25z m-60 1 c0 -5 -4 -10 -10 -10 -5 0 -10 5 -10 10 0 6 5 10 10
10 6 0 10 -4 10 -10z m-930 -30 c0 -5 -5 -10 -11 -10 -5 0 -7 5 -4 10 3 6 8
10 11 10 2 0 4 -4 4 -10z m690 0 c0 -5 -4 -10 -10 -10 -5 0 -10 5 -10 10 0 6
5 10 10 10 6 0 10 -4 10 -10z m45 0 c3 -5 1 -10 -4 -10 -6 0 -11 5 -11 10 0 6
2 10 4 10 3 0 8 -4 11 -10z m96 -19 c16 -16 29 -37 29 -46 0 -10 -14 -1 -40
26 -22 23 -40 44 -40 46 0 12 26 -1 51 -26z m120 19 c32 -18 21 -30 -26 -28
-48 1 -56 10 -27 27 22 13 29 13 53 1z m119 -3 c0 -7 -9 -18 -20 -25 -11 -7
-29 -27 -40 -45 -21 -34 -28 -21 -9 16 15 28 50 67 61 67 4 0 8 -6 8 -13z m80
3 c0 -5 -4 -10 -10 -10 -5 0 -10 5 -10 10 0 6 5 10 10 10 6 0 10 -4 10 -10z
m-500 -10 c0 -5 -4 -10 -10 -10 -5 0 -10 5 -10 10 0 6 5 10 10 10 6 0 10 -4
10 -10z m540 0 c0 -5 -4 -10 -10 -10 -5 0 -10 5 -10 10 0 6 5 10 10 10 6 0 10
-4 10 -10z m-570 -31 c0 -5 -4 -9 -10 -9 -5 0 -10 7 -10 16 0 8 5 12 10 9 6
-3 10 -10 10 -16z m610 11 c0 -5 -4 -10 -10 -10 -5 0 -10 5 -10 10 0 6 5 10
10 10 6 0 10 -4 10 -10z m-447 -22 c15 -6 27 -15 27 -20 0 -6 -8 -7 -17 -3
-78 34 -159 4 -147 -53 l5 -27 -16 28 c-15 26 -15 31 -1 52 27 41 80 49 149
23z m-813 -12 c0 -29 -14 -40 -35 -29 -13 8 -13 11 1 31 20 29 34 28 34 -2z
m40 20 c0 -3 -4 -8 -10 -11 -5 -3 -10 -1 -10 4 0 6 5 11 10 11 6 0 10 -2 10
-4z m1190 -16 c24 -24 25 -39 5 -66 -13 -18 -14 -17 -15 18 0 32 -4 39 -25 44
-14 3 -45 3 -70 0 -48 -8 -59 -1 -22 14 41 16 105 12 127 -10z m-265 0 c-3 -5
-10 -10 -16 -10 -5 0 -9 5 -9 10 0 6 7 10 16 10 8 0 12 -4 9 -10z m775 -5 c0
-8 -2 -15 -4 -15 -2 0 -6 7 -10 15 -3 8 -1 15 4 15 6 0 10 -7 10 -15z m-450 1
c0 -3 -4 -8 -10 -11 -5 -3 -10 -1 -10 4 0 6 5 11 10 11 6 0 10 -2 10 -4z
m-1200 -35 c13 -25 13 -42 -1 -18 -5 9 -15 17 -21 17 -6 0 -17 -8 -24 -17 -12
-17 -13 -16 -14 4 0 35 43 45 60 14z m689 -12 c14 -23 20 -27 24 -15 7 18 42
22 52 6 3 -5 -3 -10 -14 -10 -11 0 -23 -4 -26 -10 -12 -19 -44 -10 -64 19 -25
35 -26 41 -6 41 8 0 24 -14 34 -31z m401 22 c0 -13 -40 -61 -51 -61 -11 0 -2
38 13 58 12 14 38 16 38 3z m607 -13 c-3 -8 -6 -5 -6 6 -1 11 2 17 5 13 3 -3
4 -12 1 -19z m-807 -8 c0 -4 -11 -7 -25 -6 -27 1 -33 11 -12 19 15 5 37 -2 37
-13z m124 -6 c5 -12 2 -15 -10 -10 -8 3 -22 6 -30 6 -9 0 -12 5 -9 10 10 16
42 12 49 -6z m-1176 -34 c-4 -23 -2 -27 8 -19 7 6 16 19 19 30 4 10 11 19 16
19 15 0 10 -30 -11 -59 l-19 -28 47 23 c65 32 74 29 28 -11 -44 -39 -43 -41 5
-21 49 20 89 28 89 18 0 -5 -10 -13 -22 -19 -22 -10 -22 -10 10 -17 37 -9 43
-26 10 -26 -13 0 -30 -5 -38 -11 -12 -8 -10 -9 8 -4 33 9 88 -12 107 -41 23
-35 12 -41 -25 -14 -35 25 -90 32 -97 13 -3 -9 6 -13 26 -13 22 0 41 -11 67
-37 44 -44 32 -54 -21 -18 -21 14 -48 25 -61 25 -17 0 -32 12 -51 41 -26 40
-45 40 -24 0 18 -32 13 -34 -15 -4 -21 23 -23 24 -14 6 9 -19 8 -22 -6 -16
-14 5 -16 2 -12 -15 3 -11 -1 -30 -9 -41 -8 -12 -10 -21 -4 -21 6 0 11 -7 11
-15 0 -18 16 -20 26 -4 4 8 9 7 15 -2 6 -10 10 -4 15 20 5 25 9 30 16 18 20
-37 -53 -128 -97 -119 -36 6 -39 19 -11 37 28 19 26 61 -3 49 -9 -4 -28 -9
-43 -12 -25 -4 -28 -1 -28 21 0 15 10 33 23 44 25 20 34 63 12 63 -19 0 -27
30 -13 47 10 13 9 15 -7 11 -15 -2 -20 -12 -21 -38 -1 -19 -2 -41 -3 -47 -1
-16 -61 -48 -61 -33 0 6 5 20 11 31 9 18 8 19 -16 13 l-27 -7 21 41 c12 23 30
46 41 52 12 6 20 21 20 35 0 29 8 32 25 8 11 -15 14 -11 20 25 4 24 11 39 17
36 5 -4 8 -17 5 -31 -3 -15 0 -22 7 -20 6 2 12 18 14 35 2 18 8 32 14 32 6 0
8 -13 6 -30z m-125 4 c9 -9 -3 -34 -17 -34 -20 0 -39 17 -32 29 8 12 39 15 49
5z m947 -3 c0 -5 -7 -11 -15 -15 -9 -3 -15 0 -15 9 0 8 7 15 15 15 8 0 15 -4
15 -9z m450 -1 c0 -5 -9 -10 -20 -10 -11 0 -20 5 -20 10 0 6 9 10 20 10 11 0
20 -4 20 -10z m-109 -20 c72 -22 97 -36 87 -46 -4 -4 -40 4 -80 17 -121 39
-206 30 -360 -36 -13 -5 -18 -3 -18 8 0 13 47 36 135 65 52 18 168 14 236 -8z
m-896 0 c-3 -5 -15 -10 -26 -10 -11 0 -17 5 -14 10 3 6 15 10 26 10 11 0 17
-4 14 -10z m1726 -33 c-8 -8 -11 -7 -11 4 0 20 13 34 18 19 3 -7 -1 -17 -7
-23z m44 -6 c-14 -29 -35 -42 -35 -22 0 12 41 63 47 57 2 -2 -3 -18 -12 -35z
m-1735 -1 c0 -5 -14 -10 -31 -10 -17 0 -28 4 -24 10 3 6 17 10 31 10 13 0 24
-4 24 -10z m855 -9 c28 -11 68 -26 90 -34 48 -18 116 -91 151 -163 74 -151 73
-361 -2 -519 -26 -57 -89 -135 -108 -135 -7 0 -23 12 -37 26 -18 19 -31 24
-50 20 -18 -3 -32 1 -43 13 -18 19 -21 41 -7 41 5 0 34 23 65 51 71 64 98 131
98 239 -1 189 -118 330 -276 330 -67 0 -115 -18 -183 -69 -57 -41 -91 -111
-99 -200 -4 -38 -9 -73 -13 -78 -11 -16 -123 -45 -133 -35 -7 7 -6 45 1 114 9
87 17 115 50 184 41 82 116 178 132 169 4 -3 28 4 51 16 102 52 222 64 313 30z
m800 -11 c9 -29 40 -43 66 -29 38 20 46 -3 27 -76 -17 -63 -15 -101 3 -89 11
7 11 1 -1 -31 -11 -29 -3 -78 11 -69 5 3 9 0 9 -5 0 -10 -14 -15 -33 -12 -4 1
-21 -6 -37 -14 -29 -15 -29 -15 -38 17 -8 29 -13 33 -40 32 -21 -1 -32 3 -32
12 0 9 11 14 33 14 33 0 77 23 77 40 0 5 -15 7 -32 4 l-33 -6 33 30 c17 17 32
36 32 43 0 7 -10 3 -23 -9 -35 -33 -41 -26 -13 11 35 46 33 57 -3 23 -26 -25
-35 -28 -75 -24 -54 6 -76 22 -76 54 0 28 -15 32 -25 7 -7 -16 -9 -15 -15 7
l-8 25 -1 -27 c-1 -36 -19 -45 -23 -11 -2 14 -9 28 -16 31 -7 2 -10 -2 -7 -10
7 -19 -104 -25 -116 -6 -15 23 -10 38 13 38 12 0 32 10 44 21 22 21 25 21 48
5 33 -21 54 -20 96 3 23 13 55 20 92 20 48 1 58 -2 63 -19z m-545 -67 c-1 -32
-4 -43 -9 -33 -8 14 -4 80 5 80 2 0 4 -21 4 -47z m-732 2 c2 -10 0 -15 -6 -11
-6 3 -13 0 -15 -6 -3 -7 -6 0 -6 15 -1 32 21 33 27 2z m-311 -45 c7 0 13 -4
13 -10 0 -21 -50 -9 -75 17 -36 40 -31 48 12 18 21 -14 43 -25 50 -25z m1075
8 c-7 -7 -12 -8 -12 -2 0 14 12 26 19 19 2 -3 -1 -11 -7 -17z m238 -7 c0 -9
-33 -21 -57 -21 -22 0 -14 18 10 23 39 8 47 7 47 -2z m-1611 -51 c0 -10 -3 -8
-9 5 -12 27 -12 43 0 25 5 -8 9 -22 9 -30z m561 30 c0 -5 -4 -10 -9 -10 -6 0
-13 5 -16 10 -3 6 1 10 9 10 9 0 16 -4 16 -10z m-416 -84 c46 -55 53 -66 38
-66 -9 0 -122 108 -122 116 0 2 8 4 19 4 10 0 39 -24 65 -54z m153 30 c15 -13
25 -27 21 -31 -3 -3 -21 7 -40 24 -39 36 -22 42 19 7z m650 8 c5 -14 7 -14 14
-1 18 32 139 -16 177 -71 43 -61 70 -205 43 -222 -7 -4 -23 -5 -37 -2 -18 3
-24 0 -24 -14 0 -14 -3 -15 -12 -6 -17 17 -33 15 -18 -3 7 -8 10 -16 6 -16 -3
-1 -10 -2 -15 -3 -12 -1 -62 -70 -84 -114 -15 -31 -15 -33 1 -30 10 2 19 16
22 33 4 23 11 30 30 31 14 1 33 -2 42 -7 16 -9 16 -7 3 23 -13 33 -6 68 15 68
15 0 12 -48 -2 -53 -16 -5 -10 -12 18 -21 31 -10 39 20 14 55 l-21 28 33 9
c31 8 33 7 36 -19 4 -34 -35 -112 -52 -106 -7 3 -12 -3 -12 -15 1 -29 -19 -33
-30 -8 -9 21 -10 21 -49 -10 -21 -17 -45 -28 -53 -25 -7 3 -18 5 -24 5 -6 0
-8 10 -5 23 3 12 1 45 -3 72 -7 50 -7 50 -9 -22 -1 -68 -11 -97 -26 -72 -4 5
-14 8 -22 5 -12 -5 -13 0 -8 24 4 20 3 30 -5 30 -7 0 -10 -7 -6 -15 4 -10 -1
-15 -16 -15 -20 0 -20 -1 -4 -13 16 -12 15 -14 -8 -36 -31 -30 -45 -21 -84 53
-37 71 -45 108 -46 206 0 76 3 91 29 139 34 62 78 101 132 118 51 15 53 15 60
-3z m627 -33 c-17 -15 -95 -30 -91 -18 2 6 18 14 36 18 18 4 38 12 44 18 9 9
13 9 16 1 2 -7 -1 -15 -5 -19z m-1755 -5 c10 -11 8 -16 -8 -21 -25 -8 -41 1
-41 21 0 18 34 18 49 0z m-475 -12 c10 -10 16 -33 16 -65 0 -42 3 -51 23 -58
26 -10 57 3 57 25 0 22 44 34 131 36 99 1 110 -7 133 -92 5 -18 1 -15 -13 11
-31 57 -42 62 -130 58 -71 -4 -83 -7 -108 -32 -55 -51 -121 -23 -108 46 6 28
3 39 -15 57 -13 13 -29 20 -41 17 -10 -3 -17 -1 -13 4 9 14 51 10 68 -7z m745
2 c7 -8 11 -29 11 -47 -1 -19 2 -45 6 -59 l7 -25 -22 20 c-18 16 -22 27 -17
54 4 25 1 40 -11 53 -14 16 -14 18 -1 18 9 0 21 -6 27 -14z m151 -57 c17 -32
30 -61 30 -65 0 -17 -35 26 -52 63 -10 23 -23 45 -28 48 -16 10 -11 25 5 18 9
-3 29 -32 45 -64z m-833 -3 c-1 -45 -17 -35 -17 10 0 19 4 33 9 30 5 -3 9 -21
8 -40z m894 24 c14 -26 39 -83 39 -88 0 -13 -32 25 -54 65 -21 36 -22 44 -9
41 9 -2 19 -10 24 -18z m-864 -12 c-3 -8 -6 -5 -6 6 -1 11 2 17 5 13 3 -3 4
-12 1 -19z m2275 -18 c5 0 21 9 35 20 31 24 43 18 43 -21 0 -35 2 -35 41 -7
26 19 31 20 39 8 5 -8 10 -27 10 -42 0 -32 9 -34 49 -13 35 18 41 13 34 -33
-6 -32 -4 -35 13 -27 10 4 28 8 39 9 17 1 20 -5 17 -31 -2 -31 0 -33 33 -33
44 0 46 -16 3 -22 -18 -3 -42 -9 -52 -13 -15 -6 -17 -5 -11 5 6 10 4 12 -9 7
-18 -7 -160 82 -168 105 -4 11 -8 11 -20 0 -13 -10 -16 -9 -21 8 -7 26 -32 25
-51 -2 l-16 -22 0 22 c0 12 7 25 15 28 23 9 18 24 -9 24 -14 0 -30 10 -40 25
-21 31 -20 57 1 28 8 -13 20 -23 25 -23z m-305 -180 c-2 -69 -9 -136 -15 -150
-9 -20 -10 -15 -4 30 4 30 7 114 6 185 -1 98 1 121 9 95 5 -19 7 -91 4 -160z
m-1757 130 c11 -6 25 -28 31 -50 17 -56 1 -74 -60 -65 -65 9 -142 10 -167 1
-16 -6 -23 -2 -32 18 -10 21 -9 26 3 26 8 0 24 14 37 30 12 17 36 34 53 39 42
13 113 13 135 1z m770 -32 c0 -13 -18 -9 -34 8 -9 8 -16 20 -16 25 0 11 49
-22 50 -33z m-217 -3 c20 -43 9 -46 -21 -5 -26 34 -27 40 -9 40 7 0 21 -16 30
-35z m77 -64 c0 -32 -13 -32 -25 1 -7 18 -16 42 -20 53 -5 15 -1 13 19 -8 14
-15 26 -36 26 -46z m237 37 c-3 -7 -5 -2 -5 12 0 14 2 19 5 13 2 -7 2 -19 0
-25z m1242 -14 c-20 -22 -49 -32 -49 -19 0 12 55 53 63 48 5 -3 -2 -16 -14
-29z m-2382 4 c29 -27 29 -42 1 -56 -44 -21 -70 -25 -79 -11 -17 28 -9 58 19
73 35 19 32 20 59 -6z m549 3 c-3 -5 -27 -17 -52 -27 -34 -13 -48 -14 -56 -6
-9 9 -7 12 8 12 10 0 37 9 59 19 41 19 51 19 41 2z m119 -57 c-6 -33 -46 -73
-87 -87 -25 -9 -23 -3 12 37 17 18 40 56 52 82 19 42 23 46 26 25 2 -13 1 -39
-3 -57z m75 15 c0 -42 -18 -99 -31 -99 -12 0 -11 20 3 97 12 67 28 68 28 2z
m218 25 c4 -33 -11 -24 -23 15 -5 17 -4 22 6 19 8 -3 15 -18 17 -34z m1341 0
c-18 -13 -35 -21 -38 -18 -9 9 49 55 60 48 6 -3 -4 -17 -22 -30z m-2479 5 c0
-11 -4 -18 -10 -14 -5 3 -7 12 -3 20 7 21 13 19 13 -6z m1000 -35 c0 -8 -2
-14 -5 -14 -6 0 -35 56 -35 67 1 14 40 -39 40 -53z m1328 27 c-7 -12 -16 -21
-21 -21 -8 0 -2 14 16 38 16 20 20 6 5 -17z m-1811 -3 c-3 -8 -6 -5 -6 6 -1
11 2 17 5 13 3 -3 4 -12 1 -19z m2730 0 c-3 -8 -6 -5 -6 6 -1 11 2 17 5 13 3
-3 4 -12 1 -19z m246 -10 c-5 -25 -3 -30 8 -24 8 4 3 -2 -10 -14 -27 -23 -44
-22 -49 5 -3 10 0 15 7 11 5 -4 17 7 26 24 20 39 26 38 18 -2z m-2753 -8 c-11
-21 -101 -70 -127 -70 -30 0 -9 20 51 48 35 17 67 36 71 42 12 20 17 2 5 -20z
m450 9 c0 -11 -4 -17 -10 -14 -5 3 -10 13 -10 21 0 8 5 14 10 14 6 0 10 -9 10
-21z m-1115 -12 c0 -9 -3 -16 -7 -14 -3 1 -18 -9 -31 -22 -26 -23 -47 -22 -47
4 0 15 60 56 75 51 6 -1 10 -10 10 -19z m696 -26 c-20 -38 -56 -69 -68 -57 -3
2 14 28 38 55 23 28 44 49 46 47 3 -2 -5 -22 -16 -45z m-801 13 c0 -8 -4 -12
-10 -9 -5 3 -10 13 -10 21 0 8 5 12 10 9 6 -3 10 -13 10 -21z m2520 14 c0 -20
-32 -48 -57 -48 -12 0 -23 5 -23 10 0 6 9 10 20 10 11 0 25 9 32 20 14 22 28
26 28 8z m140 -4 c22 -9 40 -20 40 -25 0 -5 7 -9 15 -9 14 0 14 -3 0 -29 -20
-39 -33 -47 -27 -16 5 28 -14 35 -21 8 -4 -15 -6 -15 -12 5 -10 32 -25 27 -25
-8 0 -16 -4 -30 -10 -30 -5 0 -10 9 -10 19 0 11 -4 23 -10 26 -5 3 -10 -1 -10
-11 0 -13 -3 -14 -15 -4 -13 11 -15 9 -15 -13 0 -14 -7 -28 -16 -31 -26 -10
-5 -26 26 -19 21 4 56 -5 120 -31 61 -24 106 -36 140 -36 39 0 52 -4 64 -22
26 -36 21 -58 -14 -58 -17 0 -33 7 -38 17 -7 12 -17 14 -41 10 -31 -7 -237 49
-285 76 -12 7 -28 12 -36 12 -8 1 -14 6 -13 12 1 6 -6 9 -19 5 -16 -4 -19 -2
-13 8 6 10 4 12 -9 7 -11 -4 -15 -3 -11 4 4 6 13 8 21 5 7 -3 16 -1 19 5 14
22 -28 19 -65 -5 -43 -28 -50 -31 -50 -17 0 6 39 31 88 57 48 26 92 52 97 58
18 21 60 45 77 45 10 1 36 -6 58 -15z m-2716 0 c9 -3 16 -10 16 -15 0 -10 -61
0 -74 12 -11 10 34 12 58 3z m2516 -3 c0 -5 -10 -11 -22 -14 -13 -2 -31 -8
-40 -12 -11 -4 -18 -3 -18 4 0 13 35 29 63 30 9 1 17 -3 17 -8z m891 -5 c16
10 10 -23 -7 -37 -15 -12 -16 -11 -9 10 5 16 4 21 -4 17 -7 -5 -8 -1 -4 10 4
11 8 13 11 6 2 -7 8 -10 13 -6z m-2241 -66 c105 -16 166 -43 186 -82 19 -38
12 -47 -10 -13 -24 36 -35 31 -29 -15 4 -26 2 -40 -6 -40 -6 0 -11 6 -11 14 0
20 -53 61 -58 46 -3 -7 1 -17 7 -23 14 -14 15 -57 1 -57 -5 0 -10 7 -10 15 0
9 -15 31 -32 49 -33 33 -33 33 -117 30 -46 -2 -89 -8 -95 -12 -6 -5 -25 -12
-43 -15 -26 -5 -31 -3 -26 8 4 11 1 13 -13 8 -17 -6 -17 -5 -5 10 12 15 11 17
-4 17 -13 0 -10 7 13 30 37 36 40 37 44 5 5 -40 20 -32 52 30 l30 57 21 -25
c16 -20 35 -27 105 -37z m-850 34 c0 -31 -40 -84 -63 -84 -60 1 -59 48 1 80
46 24 62 25 62 4z m300 -81 c25 -51 60 -108 79 -127 29 -30 32 -36 18 -42 -10
-3 -23 -1 -31 5 -7 6 -16 8 -19 4 -4 -3 -7 1 -7 10 0 10 -8 17 -20 17 -14 0
-20 7 -20 24 0 20 -4 23 -22 18 -16 -4 -19 -2 -12 9 4 8 10 22 11 31 2 15 -1
16 -23 8 -33 -13 -44 -12 -21 1 31 18 18 30 -15 14 -31 -15 -32 -14 -10 1 33
25 27 37 -10 18 -33 -17 -33 -17 -15 3 18 20 17 21 -10 18 -41 -3 -64 -15 -73
-39 -9 -21 -9 -21 -9 0 -1 33 115 128 148 122 9 -2 36 -44 61 -95z m1804 88
c6 -10 -73 -25 -83 -16 -9 10 22 25 51 25 15 0 29 -4 32 -9z m1007 -24 c-13
-12 -20 -15 -16 -7 14 26 28 41 33 35 3 -3 -5 -16 -17 -28z m-2963 8 c3 -3 -7
-17 -23 -31 -75 -62 -95 -66 -95 -17 0 43 28 66 73 60 21 -3 41 -8 45 -12z
m916 -17 c14 -67 14 -98 2 -98 -7 0 -18 11 -24 25 -7 14 -19 28 -27 31 -20 8
-19 20 5 44 26 26 39 25 44 -2z m206 12 c0 -5 -4 -10 -9 -10 -5 0 -23 -3 -40
-6 -33 -7 -45 11 -13 19 32 9 62 7 62 -3z m900 0 c0 -11 -53 -40 -75 -40 -28
0 -16 26 18 37 43 14 57 15 57 3z m1143 -12 c-27 -13 -29 -25 -5 -31 9 -3 -1
-5 -23 -4 -28 1 -40 6 -40 17 0 9 10 15 23 16 12 1 25 4 29 8 3 3 13 6 22 5
11 0 9 -4 -6 -11z m-2177 -34 c-19 -13 -46 -19 -46 -9 0 8 55 34 60 28 3 -2
-4 -11 -14 -19z m922 4 c-16 -24 -68 -38 -68 -19 0 10 52 38 74 40 5 1 2 -9
-6 -21z m570 10 c17 -17 15 -33 -2 -18 -12 9 -17 7 -28 -9 -14 -23 -28 -28
-28 -9 0 12 29 48 40 48 3 0 11 -5 18 -12z m-1438 -44 c0 -8 5 -14 11 -14 5 0
7 -5 4 -11 -5 -6 -12 -4 -21 8 -16 21 -19 47 -4 38 6 -3 10 -13 10 -21z m1596
5 c14 -16 18 -34 17 -70 -2 -40 2 -51 20 -64 20 -14 20 -16 4 -32 -15 -15 -19
-15 -31 -3 -7 8 -22 40 -31 70 -10 30 -24 64 -31 74 -10 14 -11 23 -2 33 15
19 32 16 54 -8z m234 6 c17 -9 30 -24 30 -34 0 -20 -25 -35 -41 -25 -5 3 -12
-2 -15 -10 -3 -9 -10 -16 -16 -16 -5 0 -7 4 -3 9 3 6 -1 13 -8 18 -25 14 -30
50 -10 62 24 14 29 14 63 -4z m-1710 -103 c0 -11 -33 24 -46 49 -28 54 -13 63
16 10 17 -30 30 -56 30 -59z m1172 86 c-7 -7 -12 -8 -12 -2 0 14 12 26 19 19
2 -3 -1 -11 -7 -17z m234 -14 c13 -19 14 -28 5 -37 -8 -8 -11 -7 -11 5 0 8 -7
21 -15 28 -8 7 -15 16 -15 21 0 18 20 8 36 -17z m-60 1 c18 -15 18 -15 -5 -13
-14 2 -26 9 -29 16 -5 17 10 15 34 -3z m-2686 -5 c0 -5 -7 -10 -15 -10 -8 0
-15 5 -15 10 0 6 7 10 15 10 8 0 15 -4 15 -10z m437 -22 c-3 -7 -5 -2 -5 12 0
14 2 19 5 13 2 -7 2 -19 0 -25z m39 -5 c-10 -10 -19 5 -10 18 6 11 8 11 12 0
2 -7 1 -15 -2 -18z m2633 -10 c-12 -52 -11 -53 9 -47 12 4 10 0 -7 -15 -13
-12 -34 -21 -47 -21 -19 0 -24 5 -24 25 0 17 4 23 14 19 10 -4 22 8 36 35 11
23 22 41 24 41 2 0 0 -17 -5 -37z m127 11 l29 8 -28 -26 c-41 -38 -66 -30 -52
15 5 16 9 18 15 9 5 -8 17 -10 36 -6z m-1956 -9 c0 -8 5 -15 10 -15 21 0 9
-18 -15 -22 -14 -3 -25 -1 -25 3 0 5 5 9 12 9 6 0 9 2 7 5 -3 2 -22 0 -42 -6
-56 -15 -68 1 -16 21 56 23 69 24 69 5z m-402 -7 c-2 -6 -25 -17 -51 -25 -26
-7 -47 -18 -47 -22 0 -5 -3 -16 -6 -25 -3 -9 -1 -16 4 -16 6 0 14 9 17 20 3
11 11 20 16 20 14 0 11 -54 -6 -76 -23 -31 -18 -34 30 -17 37 12 43 18 34 29
-11 14 -4 70 11 79 5 3 14 -4 20 -15 6 -11 17 -20 25 -20 8 0 15 -4 15 -8 0
-8 69 -7 143 1 20 2 37 0 37 -5 0 -5 25 -35 55 -66 68 -70 73 -102 7 -40 -36
34 -61 48 -99 57 -59 12 -59 12 -359 -77 -284 -85 -322 -92 -531 -92 -167 0
-407 13 -480 25 -34 6 -46 25 -15 25 34 0 162 34 159 43 -1 4 -39 25 -83 45
-96 44 -121 59 -113 66 9 9 69 -14 69 -26 0 -6 16 -8 38 -6 49 7 82 -6 82 -32
0 -17 3 -19 19 -8 17 10 23 9 41 -7 11 -10 23 -15 27 -12 4 4 -2 13 -11 20
-17 13 -17 15 9 35 30 24 71 30 59 10 -4 -7 -16 -23 -27 -35 -11 -13 -15 -23
-9 -23 20 0 14 -18 -8 -25 -20 -6 -29 -45 -11 -45 21 0 61 20 61 31 0 7 8 18
18 26 16 14 16 14 -1 9 -31 -10 -38 4 -20 35 20 33 33 37 39 12 5 -17 18 -17
167 -12 174 7 209 14 502 109 166 53 179 56 173 38z m1857 -56 c-10 -10 -25
21 -24 48 1 23 2 22 15 -9 8 -18 12 -36 9 -39z m-2665 48 c0 -11 -42 -31 -49
-24 -2 2 2 10 9 19 14 17 40 20 40 5z m1110 -65 c-1 -5 -12 3 -25 18 -14 15
-25 33 -25 40 1 7 12 -1 25 -18 14 -16 25 -34 25 -40z m454 8 c-47 -76 -62
-89 -34 -33 20 40 57 90 67 90 2 0 -13 -26 -33 -57z m1151 27 c9 -17 13 -35 9
-41 -6 -11 -43 51 -37 64 7 12 12 8 28 -23z m507 -21 c-19 -17 -31 -36 -29
-43 4 -10 -1 -12 -15 -8 -11 2 -22 11 -25 19 -7 17 14 43 30 38 7 -3 23 4 37
14 38 30 39 13 2 -20z m-3181 -12 c-7 -16 -16 -21 -36 -20 -40 3 -43 11 -10
38 35 27 59 18 46 -18z m1364 13 c-10 -11 -20 -18 -23 -15 -3 3 3 14 13 25 10
11 20 18 23 15 3 -3 -3 -14 -13 -25z m-1524 -38 c-19 -7 -40 -11 -48 -8 -20 8
-27 34 -13 51 10 12 17 11 53 -8 l41 -21 -33 -14z m1398 33 c-18 -17 -113 -55
-139 -55 -11 0 -20 4 -20 9 0 5 11 9 25 9 14 0 51 12 82 28 60 30 77 33 52 9z
m243 13 c-9 -9 -15 -9 -24 0 -9 9 -7 12 12 12 19 0 21 -3 12 -12z m1756 -38
c-2 -6 -8 -6 -18 0 -13 9 -13 11 0 20 15 10 25 0 18 -20z m-3572 5 c-11 -8
-25 -15 -30 -15 -6 0 -2 7 8 15 11 8 25 15 30 15 6 0 2 -7 -8 -15z m1674 -29
c59 -58 128 -92 231 -115 53 -12 72 -20 52 -20 -49 -1 -132 19 -188 45 -72 34
-183 134 -148 134 4 0 28 -20 53 -44z m117 38 c-3 -3 -12 -4 -19 -1 -8 3 -5 6
6 6 11 1 17 -2 13 -5z m1863 -3 c0 -9 -24 -21 -41 -21 -16 0 -10 18 9 23 28 8
32 7 32 -2z m-672 -20 c3 -8 -1 -12 -9 -9 -7 2 -15 10 -17 17 -3 8 1 12 9 9 7
-2 15 -10 17 -17z m-2688 -21 c0 -5 -2 -10 -4 -10 -3 0 -8 5 -11 10 -3 6 -1
10 4 10 6 0 11 -4 11 -10z m1620 -55 c0 -5 -11 3 -24 20 -13 16 -22 34 -19 38
6 9 43 -41 43 -58z m-270 25 c0 -5 -7 -10 -16 -10 -8 0 -12 5 -9 10 3 6 10 10
16 10 5 0 9 -4 9 -10z m53 -62 c-2 -5 -12 -8 -21 -7 -10 0 -12 3 -5 6 25 10
-10 31 -35 22 -40 -15 -49 -9 -13 10 33 17 34 17 55 -3 12 -12 21 -24 19 -28z
m-133 32 c0 -5 -5 -10 -11 -10 -5 0 -7 5 -4 10 3 6 8 10 11 10 2 0 4 -4 4 -10z
m40 -90 l25 -21 -30 14 c-16 9 -41 28 -55 43 l-25 28 30 -22 c17 -12 41 -31
55 -42z m170 20 c-19 -13 -30 -13 -30 0 0 6 10 10 23 10 18 0 19 -2 7 -10z
m40 -5 c0 -5 -68 -35 -79 -35 -8 1 61 39 72 40 4 0 7 -2 7 -5z m67 -21 c-3 -3
-12 -4 -19 -1 -8 3 -5 6 6 6 11 1 17 -2 13 -5z m-178 -40 c8 -2 11 -7 9 -10
-6 -6 -78 22 -78 30 0 3 12 1 28 -5 15 -5 33 -12 41 -15z"/>
<path d="M1002 1092 c-34 -16 -38 -35 -8 -40 15 -3 55 33 56 51 0 10 -11 8
-48 -11z"/>
<path d="M1980 1113 c-8 -2 -22 -7 -30 -10 -8 -4 -21 -5 -27 -4 -7 1 -13 -7
-13 -19 0 -17 -3 -19 -19 -10 -27 14 -53 -13 -45 -45 5 -20 2 -24 -15 -22 -15
1 -19 6 -15 19 7 22 -9 24 -26 3 -19 -23 -4 -48 25 -41 14 4 25 2 25 -4 0 -5
-7 -10 -15 -10 -17 0 -20 -16 -4 -25 14 -9 49 23 43 40 -4 9 2 11 20 8 20 -4
28 0 35 18 5 13 10 18 10 12 1 -7 6 -13 12 -13 7 0 9 10 4 27 -11 46 -11 47
10 48 15 0 21 -8 23 -33 2 -20 8 -32 15 -29 13 4 13 17 1 56 -6 20 -4 23 9 18
11 -4 17 -1 17 8 0 15 -12 18 -40 8z m-82 -81 c2 -12 -1 -22 -6 -22 -15 0 -34
28 -27 40 10 17 30 6 33 -18z"/>
<path d="M2059 1099 c-16 -32 3 -69 36 -69 15 0 35 -5 46 -11 22 -11 50 3 48
25 0 7 -2 6 -6 -1 -2 -7 -11 -13 -19 -13 -16 0 -18 33 -4 61 7 13 7 19 0 19
-18 0 -25 -5 -22 -15 2 -5 -5 -2 -16 8 -25 23 -49 21 -63 -4z m46 -10 c9 -26
-10 -48 -26 -32 -12 12 -3 53 11 53 5 0 12 -9 15 -21z"/>
<path d="M2190 1079 c0 -18 2 -19 15 -9 21 18 20 -8 -1 -39 -12 -17 -13 -26
-5 -34 8 -8 11 -8 11 2 0 7 9 26 21 43 12 16 20 30 18 31 -2 1 -14 8 -26 15
-30 16 -33 16 -33 -9z"/>
<path d="M2270 1048 c0 -8 -11 -25 -25 -38 -13 -12 -22 -27 -18 -33 3 -5 14 1
24 14 l19 24 0 -34 c0 -27 3 -32 16 -27 14 5 15 4 4 -9 -18 -22 -4 -19 35 8
39 27 37 39 -7 30 -29 -6 -29 -5 -26 32 2 24 -2 40 -9 42 -7 3 -13 -2 -13 -9z"/>
<path d="M1730 950 c0 -5 7 -10 15 -10 8 0 20 -9 27 -20 13 -21 38 -27 38 -10
0 6 -7 10 -16 10 -11 0 -14 6 -9 20 4 11 2 20 -4 20 -6 0 -11 -5 -11 -12 0 -9
-3 -9 -12 0 -15 15 -28 16 -28 2z"/>
<path d="M1717 923 c-12 -11 -8 -23 8 -23 24 0 17 -20 -10 -30 -14 -5 -25 -13
-25 -18 0 -13 42 -12 56 3 8 7 19 16 26 19 10 5 10 7 0 12 -7 3 -21 15 -31 25
-10 11 -21 16 -24 12z"/>
<path d="M2333 923 c-33 -4 -47 -23 -17 -23 11 0 14 -5 10 -16 -12 -31 6 -35
35 -8 30 29 38 55 17 52 -7 0 -28 -3 -45 -5z"/>
<path d="M2380 852 c-19 -9 -37 -17 -38 -18 -2 -2 -1 -12 3 -23 6 -21 35 -30
35 -11 0 6 -5 10 -11 10 -8 0 -8 5 1 15 7 8 21 15 31 15 11 0 19 7 19 15 0 8
-1 15 -2 14 -2 0 -19 -8 -38 -17z"/>
<path d="M1756 842 c-3 -6 -1 -14 5 -17 15 -10 25 3 12 16 -7 7 -13 7 -17 1z"/>
<path d="M1688 819 c-28 -16 -21 -38 15 -55 l32 -15 -33 4 c-35 4 -54 -9 -28
-19 20 -8 21 -34 1 -34 -8 0 -15 -6 -15 -14 0 -10 13 -14 45 -14 46 0 61 16
25 25 -25 7 -26 23 -1 30 28 7 39 73 15 90 -21 15 -33 16 -56 2z m47 -28 c0
-8 -4 -16 -10 -18 -16 -5 -38 14 -30 26 9 16 40 9 40 -8z"/>
<path d="M2416 791 c-11 -12 -27 -21 -38 -21 -10 0 -18 -6 -18 -13 0 -21 12
-28 26 -16 14 11 38 3 30 -10 -3 -4 4 -8 15 -8 23 -2 26 15 4 23 -12 5 -13 10
-4 20 6 7 9 21 7 30 -3 14 -5 13 -22 -5z"/>
<path d="M2370 688 c0 -10 5 -18 11 -18 7 0 17 -7 24 -17 18 -24 45 -9 45 25
0 26 -3 28 -40 27 -31 0 -40 -4 -40 -17z m70 -18 c0 -5 -4 -10 -10 -10 -5 0
-10 5 -10 10 0 6 5 10 10 10 6 0 10 -4 10 -10z"/>
<path d="M2369 625 c-7 -62 -6 -75 7 -75 24 0 15 -18 -13 -27 l-26 -9 31 -23
c18 -12 37 -19 44 -15 7 5 3 11 -13 17 l-24 9 33 14 c40 17 41 30 3 39 -22 5
-28 12 -28 31 0 25 12 33 20 12 4 -10 8 -9 16 2 5 8 13 11 17 7 4 -3 1 -13 -6
-22 -10 -12 -10 -15 4 -15 11 0 16 9 16 29 0 26 -3 29 -40 33 -23 2 -40 -1
-41 -7z"/>
<path d="M2322 478 c-21 -21 -13 -38 17 -38 24 0 28 -3 24 -20 -7 -25 -11 -25
-40 2 -23 21 -23 21 -38 2 -8 -10 -14 -23 -14 -29 0 -5 3 -4 6 3 2 6 9 12 14
12 5 0 8 -6 7 -12 -2 -8 5 -12 15 -10 15 3 17 -1 12 -17 -10 -32 2 -25 35 21
39 53 38 68 -2 69 -18 0 -27 3 -20 6 13 5 17 23 4 23 -4 0 -13 -5 -20 -12z"/>
<path d="M2271 343 c19 -23 36 -39 38 -37 3 3 -12 21 -34 42 l-38 37 34 -42z"/>
<path d="M2870 1115 c-21 -12 -22 -14 -6 -15 10 0 24 -7 30 -15 7 -9 33 -17
71 -19 l60 -4 -35 15 c-19 9 -46 16 -60 16 -23 -1 -23 -1 -2 4 12 2 22 11 22
19 0 18 -47 18 -80 -1z"/>
<path d="M2700 1100 c0 -5 7 -10 15 -10 8 0 15 5 15 10 0 6 -7 10 -15 10 -8 0
-15 -4 -15 -10z"/>
<path d="M2920 1022 c-33 -15 -33 -16 -11 -20 13 -2 31 3 39 12 23 23 12 25
-28 8z"/>
<path d="M2003 923 c-28 -5 -29 -15 -5 -36 26 -24 33 -21 30 13 -1 17 -2 29
-3 29 0 -1 -10 -4 -22 -6z"/>
<path d="M2107 910 c-13 -13 -15 -20 -6 -25 8 -6 7 -10 -6 -17 -15 -9 -15 -11
4 -29 24 -23 44 -24 61 -4 15 18 5 35 -21 35 -12 0 -19 7 -19 20 0 11 5 20 10
20 6 0 10 5 10 10 0 15 -13 11 -33 -10z"/>
<path d="M2051 904 c0 -11 3 -14 6 -6 3 7 2 16 -1 19 -3 4 -6 -2 -5 -13z"/>
<path d="M2140 890 c0 -5 5 -10 10 -10 6 0 10 5 10 10 0 6 -4 10 -10 10 -5 0
-10 -4 -10 -10z"/>
<path d="M1960 877 c0 -19 16 -31 24 -18 3 5 -1 14 -9 21 -12 10 -15 10 -15
-3z"/>
<path d="M1911 869 c-16 -7 -22 -15 -18 -29 3 -12 -1 -20 -11 -22 -8 -2 -16
-13 -17 -25 -1 -20 3 -23 37 -21 30 1 38 5 38 20 0 10 -5 18 -11 18 -8 0 -8 4
1 14 6 8 10 24 8 34 -2 16 -7 18 -27 11z"/>
<path d="M2200 840 c-8 -14 -13 -29 -12 -34 2 -5 -3 -13 -10 -17 -10 -6 -8
-12 7 -23 24 -19 47 -20 63 -4 19 19 14 28 -13 28 -28 0 -45 27 -25 40 7 4 10
14 8 21 -3 10 -9 6 -18 -11z"/>
<path d="M1978 842 c-10 -2 -18 -10 -18 -18 0 -8 5 -13 12 -11 6 1 14 -6 16
-15 2 -11 -2 -18 -12 -18 -11 0 -16 -9 -16 -32 1 -31 2 -32 15 -14 16 21 39
12 30 -11 -4 -13 -3 -14 10 -3 10 8 12 17 5 30 -5 9 -5 21 -1 26 14 14 -21 70
-41 66z"/>
<path d="M2230 820 c0 -5 5 -10 11 -10 5 0 7 5 4 10 -3 6 -8 10 -11 10 -2 0
-4 -4 -4 -10z"/>
<path d="M2106 789 c-9 -11 -14 -25 -10 -31 4 -5 0 -14 -7 -19 -11 -7 -10 -11
6 -23 26 -20 49 -20 65 -1 15 18 12 23 -18 28 -32 5 -37 15 -18 36 10 10 13
21 8 24 -4 4 -16 -3 -26 -14z"/>
<path d="M2140 770 c0 -5 5 -10 11 -10 5 0 7 5 4 10 -3 6 -8 10 -11 10 -2 0
-4 -4 -4 -10z"/>
<path d="M1900 755 c-8 -9 -21 -13 -36 -9 -13 3 -24 2 -24 -2 1 -22 19 -34 62
-38 l46 -4 -10 29 c-13 37 -22 43 -38 24z"/>
<path d="M2042 679 c2 -6 8 -10 13 -10 5 0 11 4 13 10 2 6 -4 11 -13 11 -9 0
-15 -5 -13 -11z"/>
<path d="M1846 641 c-4 -5 -2 -13 4 -16 21 -13 71 -126 65 -146 -4 -13 -2 -19
9 -19 9 0 16 8 16 18 1 29 66 147 79 144 7 -1 11 3 8 10 -2 7 -15 12 -28 11
-60 -6 -106 -5 -126 1 -12 4 -24 2 -27 -3z m134 -30 c0 -6 -5 -13 -10 -16 -6
-4 -16 -21 -24 -38 l-13 -32 -21 42 -22 43 29 -6 c16 -4 32 -1 35 5 9 13 26
15 26 2z"/>
<path d="M2082 628 c4 -30 43 -36 57 -10 13 24 5 32 -31 32 -25 0 -29 -4 -26
-22z"/>
<path d="M2084 564 c3 -9 6 -18 6 -21 0 -3 7 0 15 7 17 14 11 30 -12 30 -10 0
-13 -6 -9 -16z"/>
<path d="M2001 544 c0 -11 3 -14 6 -6 3 7 2 16 -1 19 -3 4 -6 -2 -5 -13z"/>
<path d="M695 570 c-3 -5 -2 -10 4 -10 5 0 13 5 16 10 3 6 2 10 -4 10 -5 0
-13 -4 -16 -10z"/>
<path d="M1190 398 c-33 -10 -35 -13 -36 -54 -1 -28 -8 -52 -20 -65 l-19 -21
35 7 c58 12 100 33 100 49 0 20 -14 20 -30 1 -16 -19 -30 -19 -30 0 0 8 7 15
15 15 8 0 15 7 15 16 0 8 -5 12 -11 8 -7 -4 -9 1 -7 12 3 14 12 18 31 17 18
-1 27 3 27 13 0 16 -18 16 -70 2z"/>
<path d="M1054 352 c-7 -4 -12 -19 -12 -33 1 -33 -24 -83 -37 -78 -11 5 -12
20 -1 66 7 31 6 31 -20 24 -24 -6 -27 -11 -28 -55 -1 -59 18 -78 58 -56 18 9
31 29 41 63 8 27 20 56 26 63 9 11 8 14 -2 14 -8 0 -19 -4 -25 -8z"/>
<path d="M1093 315 c-3 -9 -3 -18 0 -21 9 -9 27 6 27 22 0 19 -19 18 -27 -1z"/>
<path d="M865 306 c-40 -9 -50 -15 -47 -29 2 -10 -6 -33 -17 -52 l-20 -35 39
0 c50 0 90 15 90 35 0 15 -2 15 -22 1 -28 -20 -38 -20 -38 -1 0 9 10 20 23 25
18 7 19 9 4 9 -29 1 -13 26 16 26 19 -1 27 4 27 17 0 10 -1 17 -2 17 -2 -1
-26 -6 -53 -13z"/>
<path d="M560 285 c0 -26 -29 -73 -47 -78 -18 -5 88 -11 117 -7 20 2 60 40 60
56 0 27 -32 44 -81 44 -38 0 -49 -4 -49 -15z m90 -25 c0 -22 -43 -55 -60 -45
-6 4 -5 16 5 36 18 34 55 40 55 9z"/>
<path d="M730 282 c0 -10 -9 -34 -19 -55 l-19 -37 27 0 c23 0 29 6 39 43 7 23
15 48 18 55 4 8 -3 12 -20 12 -18 0 -26 -5 -26 -18z"/>
<path d="M2692 438 c-20 -20 -14 -67 13 -93 43 -44 82 -22 71 40 -10 50 -57
80 -84 53z m55 -58 c5 -34 3 -42 -8 -38 -20 7 -40 70 -26 86 15 19 28 1 34
-48z"/>
<path d="M2797 373 c6 -64 10 -73 28 -73 13 0 14 4 5 21 -21 38 0 33 36 -9 48
-56 65 -56 52 0 -5 24 -7 51 -5 60 3 10 1 18 -3 18 -5 0 -16 3 -25 6 -14 6
-14 3 -4 -20 14 -31 2 -50 -13 -21 -15 26 -55 65 -66 65 -5 0 -7 -21 -5 -47z"/>
<path d="M2525 359 c-10 -15 3 -25 16 -12 7 7 7 13 1 17 -6 3 -14 1 -17 -5z"/>
<path d="M2977 328 c7 -22 11 -48 8 -58 -8 -24 77 -49 100 -30 45 37 -7 108
-91 123 l-31 6 14 -41z m81 -20 c12 -26 7 -58 -9 -58 -11 0 -29 44 -29 71 0
27 22 19 38 -13z"/>
<path d="M3120 299 c11 -24 20 -54 20 -66 0 -19 6 -23 32 -23 25 0 29 3 20 12
-7 7 -12 19 -12 27 0 9 15 1 39 -23 48 -47 76 -45 36 2 -22 26 -25 35 -15 47
10 12 6 18 -22 35 -18 11 -42 20 -53 20 -11 0 -30 3 -43 6 l-22 6 20 -43z m88
-6 c6 -19 -35 -16 -42 3 -4 11 0 15 16 12 12 -2 23 -9 26 -15z"/>
<path d="M2935 320 c-7 -12 2 -30 16 -30 12 0 12 27 0 35 -5 3 -12 1 -16 -5z"/>
<path d="M3280 301 c-13 -9 -13 -15 0 -53 17 -49 56 -74 97 -63 23 5 25 10 20
42 -4 20 -14 45 -24 55 -22 22 -73 32 -93 19z m74 -51 c19 -49 19 -50 2 -50
-19 0 -32 19 -41 58 -10 48 19 42 39 -8z"/>
</g>
</svg>
