<?xml version="1.0" standalone="no"?>
<!DOCTYPE svg PUBLIC "-//W3C//DTD SVG 20010904//EN"
 "http://www.w3.org/TR/2001/REC-SVG-20010904/DTD/svg10.dtd">
<svg version="1.0" xmlns="http://www.w3.org/2000/svg"
 width="2753.000000pt" height="342.000000pt" viewBox="0 0 2753.000000 342.000000"
 preserveAspectRatio="xMidYMid meet">

<g transform="translate(0.000000,342.000000) scale(0.100000,-0.100000)"
fill="#000000" stroke="none">
<path d="M13958 3268 c-14 -29 -23 -69 -27 -123 -6 -73 -8 -80 -26 -77 -11 2
-27 10 -36 18 -22 20 -57 17 -69 -6 -14 -26 -34 -25 -70 2 -22 16 -32 19 -43
10 -7 -7 -38 -11 -68 -10 -69 2 -128 -21 -190 -75 -42 -36 -49 -47 -49 -79 0
-31 4 -38 20 -38 12 0 20 -7 20 -18 0 -9 -9 -23 -20 -30 -32 -20 -26 -63 15
-99 19 -17 35 -40 35 -51 0 -24 25 -46 44 -39 14 6 76 -27 76 -41 0 -4 -5 -13
-12 -20 -6 -6 -21 -31 -33 -54 -30 -60 -56 -58 -111 8 -23 29 -50 76 -59 105
-30 92 -55 102 -55 22 0 -55 -37 -183 -56 -190 -7 -2 -27 3 -44 14 -25 14 -32
15 -39 4 -8 -12 16 -91 32 -107 13 -13 7 -42 -9 -48 -9 -3 -34 -1 -56 5 -62
16 -67 0 -24 -65 20 -30 41 -58 46 -61 20 -13 9 -41 -20 -52 -16 -6 -30 -16
-30 -22 0 -6 25 -38 55 -71 30 -33 55 -61 55 -64 0 -15 -82 -174 -96 -187 -28
-24 -100 -59 -123 -59 -20 0 -25 9 -36 72 -4 27 -22 55 -60 97 -47 50 -69 91
-49 91 14 0 53 -26 92 -62 55 -50 73 -40 48 25 -20 53 -41 74 -109 107 -50 25
-97 73 -84 86 9 9 47 -9 114 -53 41 -27 57 -33 66 -24 9 9 6 22 -12 56 -18 35
-35 49 -80 70 -31 15 -68 38 -83 52 -15 14 -58 43 -95 63 -50 26 -69 43 -71
59 -4 22 -1 23 35 17 21 -4 70 -25 110 -47 68 -37 116 -49 127 -31 8 13 -6 26
-54 50 -27 13 -63 44 -88 76 -27 36 -54 58 -77 66 -29 10 -35 16 -35 41 0 30
14 41 72 53 27 6 45 37 32 57 -4 7 -22 9 -48 5 -47 -7 -115 7 -127 25 -4 7 -1
22 7 33 8 11 14 26 14 33 0 17 -39 16 -70 -2 -32 -18 -64 -18 -114 -1 -22 7
-56 12 -75 9 -33 -4 -38 -1 -66 41 -16 25 -44 53 -61 62 -32 18 -36 27 -51
114 -7 42 -36 87 -63 95 -12 4 -30 -2 -48 -15 -25 -18 -33 -20 -51 -10 -29 15
-66 -8 -75 -46 -4 -16 -16 -34 -27 -42 -11 -8 -24 -25 -29 -38 -14 -37 -38
-29 -50 16 -6 21 -15 42 -20 45 -5 3 -21 -12 -35 -35 -14 -22 -30 -40 -35 -40
-14 0 -13 43 2 75 20 44 -2 46 -69 8 -67 -37 -78 -58 -39 -73 13 -5 27 -13 30
-19 11 -16 -11 -22 -38 -10 -34 16 -42 7 -26 -31 15 -37 0 -63 -34 -54 -14 3
-32 -3 -48 -15 -14 -12 -36 -21 -48 -21 -42 0 -60 -18 -59 -58 0 -20 -2 -49
-6 -64 -6 -22 -3 -27 17 -33 12 -4 30 -13 38 -20 8 -7 26 -15 40 -19 14 -3 33
-17 43 -31 17 -24 17 -26 -21 -107 -66 -139 -72 -155 -72 -185 0 -19 9 -38 26
-54 44 -41 47 -55 28 -116 -16 -50 -16 -57 -2 -82 9 -14 36 -37 62 -51 25 -14
60 -43 79 -65 40 -46 62 -41 52 12 -5 28 -2 40 16 59 12 13 31 24 42 24 20 0
20 -8 2 -68 -6 -18 0 -29 29 -57 20 -18 36 -40 36 -49 0 -22 -51 -58 -74 -52
-21 6 -86 -21 -86 -35 0 -13 -56 -39 -85 -39 -30 0 -70 -33 -60 -49 11 -19
103 -12 158 11 29 12 54 26 55 30 5 11 72 10 72 0 0 -23 -90 -74 -147 -85 -40
-8 -113 -55 -113 -73 0 -12 56 -34 86 -34 7 0 14 -6 17 -14 6 -16 -30 -44 -78
-62 -22 -8 -31 -18 -33 -37 -4 -36 -21 -34 -62 8 l-35 36 23 39 c23 41 30 128
13 172 -5 13 -16 50 -26 83 -22 79 -55 126 -120 170 l-52 36 -119 1 c-65 1
-150 -5 -187 -12 -80 -16 -98 -9 -108 40 -10 46 -49 76 -112 84 -32 5 -71 19
-101 39 -60 38 -92 40 -203 8 -79 -23 -84 -23 -124 -7 -76 30 -111 -8 -64 -69
41 -55 77 -69 158 -61 58 5 73 3 88 -10 22 -20 24 -59 4 -94 -21 -36 -18 -69
10 -119 31 -54 31 -65 0 -79 -14 -6 -25 -16 -25 -21 0 -6 -22 -10 -49 -9 -42
0 -50 3 -60 24 -6 14 -11 31 -11 37 0 7 -20 32 -44 56 -25 24 -47 55 -51 68
-11 44 -30 18 -42 -58 -7 -41 -17 -84 -23 -97 -5 -13 -10 -35 -10 -51 0 -40
-9 -44 -44 -17 -49 37 -123 59 -178 52 -41 -6 -53 -3 -88 20 -31 21 -44 24
-53 15 -9 -9 1 -36 43 -119 43 -83 64 -113 95 -135 38 -26 44 -28 121 -22 83
5 94 1 94 -36 0 -14 -47 -30 -115 -39 -74 -10 -115 -25 -115 -43 0 -8 28 -33
61 -57 34 -24 71 -59 82 -78 19 -33 22 -34 69 -30 44 5 48 3 48 -16 0 -12 -5
-27 -11 -33 -13 -13 -5 -43 10 -43 5 0 19 20 30 43 20 41 88 107 109 107 6 0
12 7 16 15 4 10 14 13 35 9 24 -5 38 0 72 27 45 36 57 34 92 -13 12 -16 17
-33 13 -46 -11 -34 -119 -93 -206 -112 -68 -15 -82 -22 -114 -58 -23 -25 -43
-39 -52 -35 -8 3 -20 0 -28 -6 -7 -6 -20 -9 -29 -5 -9 3 -25 -6 -41 -22 -25
-28 -26 -28 -84 -16 -67 14 -121 15 -139 4 -10 -6 -8 -20 8 -63 40 -103 38
-101 162 -164 73 -38 116 -65 115 -74 -2 -7 -32 -21 -68 -30 -36 -10 -75 -23
-87 -29 -12 -7 -33 -12 -46 -12 -47 0 -51 -22 -18 -89 36 -70 52 -81 118 -81
26 0 192 -11 367 -25 260 -20 386 -25 680 -25 437 0 486 6 826 96 89 23 457
133 570 169 342 110 364 115 494 115 85 0 99 -3 152 -31 61 -31 154 -114 154
-136 0 -25 -34 -12 -80 31 -96 90 -183 111 -331 82 -102 -21 -261 -65 -273
-76 -12 -11 0 -52 22 -80 l18 -22 87 31 c111 39 206 61 262 61 36 0 53 -8 104
-46 34 -25 87 -75 118 -110 30 -34 67 -67 82 -72 41 -14 86 4 125 50 44 51 53
92 32 143 -21 49 -21 94 0 102 12 4 29 -8 59 -42 l42 -49 1 -104 c1 -113 7
-142 26 -142 9 0 11 23 8 90 -5 100 2 109 52 69 26 -21 34 -53 16 -64 -18 -11
-29 -41 -20 -55 6 -10 15 -8 40 13 17 15 42 27 54 27 26 0 76 -42 76 -63 0 -8
7 -17 15 -21 23 -9 79 5 93 22 11 15 18 15 82 -2 61 -15 235 -23 392 -17 12 1
18 11 20 37 3 34 7 38 121 100 87 47 128 64 157 64 52 0 74 22 65 68 -5 27 -2
39 16 58 12 13 31 24 42 24 16 0 18 -5 14 -38 -2 -20 -10 -63 -18 -94 -19 -82
-8 -105 66 -145 33 -18 69 -33 80 -33 12 0 46 28 85 69 67 71 106 96 199 126
73 24 133 22 233 -9 102 -31 129 -32 152 -7 31 34 16 51 -64 77 -128 40 -218
57 -278 51 -53 -6 -163 -53 -254 -109 -42 -26 -57 -19 -38 17 16 30 67 63 140
92 168 66 225 62 550 -42 100 -32 138 -43 330 -99 306 -90 648 -158 910 -181
183 -17 546 -19 744 -5 182 13 553 58 589 72 30 12 43 44 33 84 -6 24 -10 26
-44 20 -419 -72 -760 -95 -1151 -77 -270 13 -394 29 -666 85 -166 35 -236 54
-690 187 -230 68 -361 99 -418 99 -82 0 -258 -68 -365 -142 -45 -31 -72 -31
-72 0 0 22 19 42 40 42 9 0 34 18 55 40 21 22 44 40 50 40 16 0 38 66 30 91
-5 14 0 28 15 44 17 18 21 31 16 52 -13 51 -12 68 4 68 9 0 20 -18 28 -45 8
-25 20 -60 28 -77 12 -25 12 -38 3 -54 -15 -29 1 -45 30 -30 25 14 27 34 6 51
-18 15 -20 40 -4 40 6 0 27 -17 45 -37 40 -44 60 -39 79 18 7 19 20 36 30 37
15 4 17 -1 11 -41 l-7 -44 62 -7 c34 -3 65 -4 68 -1 3 3 -1 15 -8 27 -7 11
-21 47 -32 80 -14 45 -16 65 -8 80 18 33 4 48 -44 48 -49 0 -64 -12 -73 -58
-14 -69 -43 -63 -100 20 -26 38 -30 40 -66 34 -30 -5 -38 -3 -38 9 0 30 45 46
152 52 108 6 95 8 373 -61 116 -28 333 -88 420 -115 93 -30 292 -81 349 -91
216 -38 374 -63 510 -80 88 -12 164 -23 169 -27 5 -3 6 -16 2 -30 -4 -17 0
-29 14 -41 11 -9 33 -48 49 -86 27 -63 29 -72 15 -92 -13 -20 -12 -23 4 -28
28 -8 122 -10 130 -3 3 4 -5 20 -19 35 -26 28 -43 62 -30 62 4 -1 39 -11 77
-24 61 -20 70 -27 73 -50 3 -26 5 -26 81 -26 43 0 81 3 84 7 4 3 -11 23 -33
43 -30 28 -40 45 -40 68 0 55 52 80 96 47 26 -20 54 -19 54 2 0 30 -51 73 -86
73 -34 0 -63 23 -44 35 24 15 98 -7 148 -43 61 -44 68 -57 42 -79 -29 -25 -24
-45 17 -72 33 -21 39 -22 62 -10 40 23 48 45 26 69 -11 12 -29 40 -41 63 -14
29 -27 41 -38 39 -20 -4 -52 15 -118 70 -51 42 -60 71 -29 87 10 6 37 26 60
46 24 19 47 35 52 35 16 0 10 -26 -11 -45 -30 -27 -26 -54 10 -61 16 -4 35
-13 41 -20 9 -11 5 -14 -25 -14 -43 0 -47 -16 -12 -49 23 -22 25 -22 50 -6 25
16 29 16 69 1 67 -25 100 -18 62 14 -16 13 -20 40 -7 40 5 0 31 -7 57 -15 27
-8 52 -12 57 -9 13 8 9 30 -7 44 -10 8 -12 17 -7 22 13 13 112 -21 112 -38 0
-15 -114 -91 -188 -125 -34 -16 -52 -30 -52 -41 0 -10 6 -18 13 -18 38 -1 166
-24 275 -51 138 -33 195 -35 127 -4 -22 10 -74 28 -115 41 -42 12 -76 28 -77
35 -2 9 39 36 105 70 64 34 113 66 121 80 10 19 12 44 7 102 l-8 77 -44 0
c-49 0 -57 15 -24 45 21 19 27 55 9 55 -6 0 -20 -5 -32 -11 -11 -7 -42 -18
-69 -24 -61 -17 -75 -4 -53 48 32 76 7 88 -64 32 -66 -53 -93 -44 -50 15 26
35 19 63 -13 55 -29 -7 -53 8 -45 28 8 22 91 30 208 22 54 -4 99 -4 99 0 0 18
-23 45 -55 65 -52 32 -46 55 23 88 31 15 57 34 57 42 0 11 -15 16 -57 18 -42
2 -58 7 -58 17 0 19 36 52 84 77 63 33 33 43 -71 24 -48 -9 -93 -16 -99 -16
-21 0 -23 25 -8 106 7 43 14 87 14 97 0 40 -44 7 -103 -77 -26 -37 -37 -32
-37 18 0 27 -6 48 -15 56 -22 18 -30 5 -44 -65 -6 -33 -18 -66 -27 -75 -14
-13 -18 -11 -44 20 -36 42 -53 29 -39 -29 19 -77 21 -89 13 -94 -14 -8 -154
73 -154 90 0 8 16 44 35 78 19 36 31 67 25 70 -17 10 -106 -35 -129 -66 -33
-44 -54 -38 -80 26 -39 93 -81 93 -81 1 0 -56 -15 -122 -30 -131 -5 -3 -33 12
-61 35 -68 54 -82 44 -60 -40 13 -50 17 -56 24 -38 4 13 11 18 16 12 14 -15
41 -102 41 -134 0 -37 15 -46 45 -26 29 19 35 20 35 3 0 -20 -63 -77 -85 -77
-11 0 -41 14 -67 30 -51 32 -65 58 -25 45 71 -22 71 -22 63 26 -8 52 -10 54
-32 41 -24 -14 -61 1 -104 43 -36 34 -116 73 -127 61 -4 -4 11 -21 33 -39 62
-51 82 -75 87 -110 22 -150 139 -407 222 -491 43 -44 55 -65 84 -152 19 -55
32 -108 28 -117 -11 -29 -34 -19 -59 25 -45 81 -66 53 -23 -31 13 -27 21 -51
18 -55 -12 -11 -74 -6 -104 9 -36 19 -89 90 -89 120 0 15 11 27 35 38 50 24
45 44 -12 52 -27 3 -58 10 -70 15 -24 10 -31 34 -13 45 18 11 10 45 -16 68
-43 37 -49 56 -19 67 29 11 34 40 6 40 -26 0 -51 10 -51 21 0 5 6 9 14 9 25 0
30 22 9 39 -32 25 -47 60 -33 76 9 11 7 16 -9 24 -23 13 -24 68 -2 95 12 14
10 16 -12 16 -35 0 -44 18 -18 36 22 16 29 44 11 44 -6 0 -24 -7 -40 -15 -33
-17 -55 -1 -27 20 18 13 23 35 8 35 -5 0 -14 -7 -21 -15 -22 -26 -43 -19 -37
14 5 25 4 28 -19 23 -19 -3 -24 0 -24 17 0 27 -8 26 -37 -1 -27 -25 -31 -13
-7 21 20 28 88 60 127 61 32 0 35 15 6 30 -17 10 -42 5 -132 -25 -104 -34
-114 -35 -145 -22 -26 11 -43 11 -72 3 -22 -5 -42 -7 -46 -3 -4 4 -2 25 5 46
9 30 9 45 -1 65 -10 22 -7 40 18 114 26 80 29 98 28 222 -1 117 -5 146 -28
215 -28 88 -62 152 -125 235 -44 59 -48 71 -27 92 7 8 16 23 20 35 9 28 111
82 126 67 8 -8 -7 -23 -55 -53 -36 -22 -64 -45 -60 -51 7 -12 26 -5 100 39 51
30 72 37 138 41 89 6 103 -12 16 -20 -34 -3 -72 -15 -104 -34 -69 -41 -115
-76 -115 -90 1 -6 16 -28 34 -49 l32 -39 162 -3 c150 -4 162 -3 187 17 35 27
40 18 12 -23 l-23 -34 -134 -6 c-167 -8 -174 -10 -165 -58 9 -50 21 -58 92
-70 35 -5 78 -21 100 -35 21 -14 59 -31 84 -37 44 -12 51 -11 100 14 29 14 56
24 59 21 3 -3 -12 -21 -32 -39 -49 -45 -102 -59 -175 -45 -66 12 -148 4 -169
-17 -15 -16 -19 -109 -6 -131 5 -7 55 -24 113 -38 87 -22 116 -25 179 -19 76
7 89 0 28 -15 -18 -5 -60 -18 -93 -30 -57 -20 -62 -20 -144 -5 -48 10 -88 12
-93 7 -15 -15 -43 -181 -32 -191 5 -6 30 -16 56 -22 37 -10 51 -10 60 -1 16
16 -7 42 -38 42 -12 0 -26 5 -29 10 -8 12 26 13 57 1 13 -5 48 -17 79 -26 l56
-18 54 29 c30 16 56 32 57 37 2 4 24 7 49 7 37 0 44 3 41 18 -5 24 -69 31
-148 14 -49 -11 -71 -12 -95 -3 -17 6 -43 11 -58 11 -15 0 -27 4 -27 10 0 6
18 7 43 4 33 -5 67 2 154 30 61 21 139 40 174 44 51 6 64 11 67 26 6 31 -15
41 -100 46 -51 3 -83 10 -85 17 -8 22 111 73 167 73 43 0 51 3 48 17 -2 12
-17 20 -47 25 -36 6 -55 3 -105 -18 -114 -48 -136 -52 -220 -44 -42 4 -82 12
-88 18 -23 23 5 32 98 32 107 0 135 10 217 79 46 38 82 53 121 48 29 -3 31 21
2 34 -17 8 -26 20 -26 35 0 26 -26 44 -64 44 -13 0 -45 -16 -71 -36 -73 -55
-91 -61 -118 -37 -12 11 -39 28 -59 38 -50 23 -48 35 5 35 52 0 81 19 107 70
26 50 51 63 111 58 26 -3 52 -1 58 5 14 14 2 37 -19 37 -22 0 -34 16 -35 45 0
30 -57 25 -133 -13 -62 -31 -84 -37 -129 -34 -30 2 -30 22 -1 22 15 0 44 22
83 65 51 54 66 65 93 65 25 0 32 4 32 20 0 14 -9 21 -35 26 -42 8 -77 -12
-100 -55 -23 -46 -52 -61 -118 -61 -71 0 -75 22 -5 30 84 10 122 56 99 120
-13 38 -7 53 25 70 13 7 24 22 24 33 0 17 -5 19 -40 14 -21 -3 -56 -13 -77
-23 -30 -15 -39 -26 -41 -49 -2 -16 -7 -34 -11 -38 -5 -5 -35 -1 -67 9 -54 15
-61 15 -111 0 -29 -9 -55 -21 -58 -26 -9 -14 -45 -12 -45 3 0 6 -14 41 -32 77
-22 44 -34 86 -37 130 -6 61 -8 65 -32 68 -21 2 -33 -5 -56 -35 -52 -67 -73
-109 -73 -147 0 -25 -5 -36 -14 -36 -24 0 -31 21 -33 100 -5 158 -6 165 -28
165 -14 0 -29 -17 -51 -59 -42 -82 -55 -89 -97 -48 -18 17 -41 32 -50 32 -9 0
-31 16 -48 35 -17 19 -48 40 -68 46 -20 6 -49 24 -65 40 -15 16 -32 29 -36 29
-4 0 -19 10 -33 23 -14 12 -55 40 -92 62 -37 22 -83 50 -101 63 -40 26 -50 27
-57 8 -7 -17 32 -74 56 -82 10 -3 29 -23 42 -44 13 -21 33 -41 44 -45 11 -3
23 -14 26 -24 5 -17 69 -75 106 -96 10 -5 47 -38 83 -73 36 -34 77 -67 91 -74
25 -11 34 -41 15 -53 -5 -3 -26 -1 -47 4 -46 13 -62 -4 -33 -34 11 -12 20 -29
20 -38 0 -27 26 -31 75 -12 51 19 51 35 -1 35 -19 0 -33 4 -30 9 3 4 29 8 59
8 29 0 63 5 75 12 17 9 27 9 44 0 22 -12 22 -12 3 -20 -11 -4 -33 -11 -50 -15
l-30 -7 33 -13 c65 -28 32 -41 -131 -51 l-98 -6 6 26 c6 22 2 28 -24 42 -18 9
-36 13 -41 10 -15 -9 -12 -38 6 -63 9 -13 13 -29 10 -37 -8 -22 -66 -18 -101
5 -50 33 -95 27 -140 -20 -31 -31 -47 -40 -73 -40 -60 0 -132 -100 -91 -126 7
-4 9 -21 5 -43 -4 -28 0 -46 19 -76 44 -73 27 -123 -52 -154 -57 -23 -65 -39
-57 -125 4 -42 11 -79 15 -82 17 -10 48 17 51 43 3 24 8 28 38 30 72 5 138 24
158 46 12 13 28 42 37 67 8 24 27 58 40 76 24 31 28 33 73 28 41 -5 50 -3 71
20 18 19 34 26 63 26 46 0 73 -24 88 -79 6 -25 22 -48 40 -61 43 -31 37 -90
-10 -90 -9 0 -35 -20 -60 -45 -52 -53 -65 -50 -99 23 -23 49 -58 76 -84 66
-11 -4 -16 -43 -20 -156 -4 -83 -9 -153 -11 -156 -8 -8 -150 19 -236 45 -141
42 -290 125 -290 163 0 10 -7 34 -15 53 -25 59 -19 75 45 140 33 33 57 63 55
68 -3 4 -18 10 -34 14 -54 12 -58 29 -21 88 68 107 77 126 60 137 -8 5 -31 10
-51 10 -49 0 -62 18 -54 74 6 38 4 47 -10 53 -13 4 -25 -2 -39 -20 -31 -39
-54 -35 -61 11 -16 102 -27 142 -41 142 -15 0 -16 -2 -59 -120 -37 -102 -56
-140 -67 -140 -31 0 -138 119 -138 154 0 24 45 56 79 56 26 0 34 5 42 29 6 16
21 37 35 46 17 11 24 25 24 49 0 20 8 40 20 51 27 24 25 41 -7 80 -16 17 -36
46 -45 64 -10 18 -25 31 -36 31 -11 0 -31 9 -45 20 -14 11 -37 20 -52 20 -14
0 -35 4 -45 10 -10 6 -45 7 -79 3 l-61 -6 15 -24 c9 -13 13 -28 10 -33 -12
-20 -32 -9 -64 35 -18 25 -38 45 -44 45 -7 0 -29 -11 -49 -25 -37 -25 -58 -31
-58 -17 -1 4 -2 44 -4 89 -1 45 -7 87 -13 95 -5 7 -13 25 -17 41 l-6 27 -155
0 -155 0 -22 -42z m269 -38 c2 -8 -9 -28 -23 -44 -20 -22 -35 -29 -72 -32 -42
-3 -49 0 -74 29 -15 18 -27 40 -28 50 0 16 9 17 97 15 78 -2 98 -6 100 -18z
m-193 -82 c31 -43 14 -88 -31 -88 -21 0 -23 4 -23 55 0 48 3 55 19 55 11 0 27
-10 35 -22z m246 -28 c0 -71 -16 -85 -57 -51 -30 25 -29 39 3 72 34 36 54 28
54 -21z m-130 -9 c8 -16 6 -21 -11 -26 -25 -8 -44 7 -36 29 9 22 34 20 47 -3z
m-526 -57 c8 -21 -1 -34 -25 -34 -12 0 -19 7 -19 18 0 34 33 45 44 16z m544 2
c66 -34 97 -108 39 -92 -12 3 -39 6 -59 6 -29 0 -38 4 -38 18 -1 14 -4 13 -21
-7 -18 -22 -21 -23 -36 -9 -19 20 -12 31 39 69 48 34 42 33 76 15z m-448 -22
c0 -8 -9 -14 -20 -14 -19 0 -27 19 -14 33 10 9 34 -4 34 -19z m143 15 c63 -34
127 -112 127 -156 0 -32 -13 -29 -43 10 -34 45 -95 107 -104 107 -5 0 -14 4
-22 9 -12 8 -12 12 -2 25 16 19 16 19 44 5z m771 2 c10 -16 -6 -42 -23 -39 -9
2 -17 13 -19 26 -3 16 2 22 17 22 11 0 22 -4 25 -9z m-2634 -16 c0 -8 -7 -15
-15 -15 -16 0 -20 12 -8 23 11 12 23 8 23 -8z m110 0 c0 -9 -7 -18 -16 -22
-18 -7 -39 11 -30 26 11 17 46 13 46 -4z m2350 -8 c0 -16 -12 -31 -37 -48 -34
-22 -124 -130 -135 -161 -3 -7 -8 -10 -12 -7 -12 11 60 155 99 198 43 48 85
57 85 18z m270 -8 c0 -12 -7 -19 -19 -19 -26 0 -36 17 -21 35 15 18 40 8 40
-16z m955 3 c-8 -8 -25 10 -19 20 4 6 9 5 15 -3 4 -7 6 -15 4 -17z m-2158 7
c15 -15 5 -39 -17 -39 -22 0 -32 24 -17 39 6 6 14 11 17 11 3 0 11 -5 17 -11z
m1291 -57 c4 -30 -26 -42 -44 -17 -10 14 -11 22 -2 32 16 20 42 12 46 -15z
m952 12 c0 -8 -5 -12 -10 -9 -6 4 -8 11 -5 16 9 14 15 11 15 -7z m-2305 -29
c0 -30 -39 -27 -43 3 -3 20 0 23 20 20 15 -2 23 -10 23 -23z m-1429 -50 c4
-59 -8 -75 -52 -75 -39 0 -48 12 -39 47 7 29 62 86 78 80 6 -2 12 -25 13 -52z
m1778 26 c33 -17 67 -40 74 -51 13 -21 12 -22 -20 -15 -18 4 -46 14 -62 22
-53 27 -138 29 -201 3 -87 -35 -112 -79 -79 -141 21 -42 8 -51 -22 -14 -85
106 10 225 179 225 56 0 81 -6 131 -29z m879 13 c18 -9 44 -28 60 -42 35 -33
36 -85 5 -132 -29 -42 -54 -53 -44 -19 28 94 19 120 -50 150 -33 15 -51 17
-95 10 -30 -5 -65 -14 -79 -19 -14 -5 -37 -12 -52 -16 -40 -9 -36 15 5 37 91
48 191 60 250 31z m-2573 -8 c0 -17 -27 -29 -35 -16 -4 6 -3 15 0 20 9 15 35
12 35 -4z m2048 -14 c9 -6 6 -12 -12 -22 -21 -10 -28 -11 -41 0 -8 7 -12 16
-9 21 7 11 45 11 62 1z m1690 -4 c7 -7 12 -23 12 -37 l-1 -26 -19 24 c-31 36
-23 70 8 39z m-991 -32 c-9 -23 -37 -20 -37 3 0 21 20 33 34 20 5 -4 6 -15 3
-23z m-3041 -7 c7 -12 -15 -31 -28 -23 -4 3 -8 12 -8 20 0 17 26 19 36 3z
m1888 -39 c19 -17 40 -47 46 -65 14 -43 25 -44 45 -6 23 46 64 50 108 13 29
-25 20 -35 -24 -28 -35 6 -45 3 -77 -24 -20 -16 -41 -30 -47 -30 -15 1 -68 50
-98 92 -53 73 -20 106 47 48z m916 10 c0 -25 -23 -64 -64 -107 -31 -35 -56
-43 -56 -19 0 27 41 111 63 128 30 24 57 23 57 -2z m-2396 -32 c30 -50 24 -72
-8 -26 -14 22 -30 33 -45 33 -24 0 -29 -5 -51 -60 l-13 -30 -8 30 c-16 58 10
93 73 94 21 1 32 -8 52 -41z m3744 9 c4 -31 -12 -36 -28 -8 -15 29 -12 43 8
39 10 -2 18 -14 20 -31z m-4298 3 c0 -19 -20 -27 -33 -13 -8 7 11 33 24 33 5
0 9 -9 9 -20z m2515 -20 c24 -27 8 -47 -24 -30 -12 6 -36 8 -57 4 -34 -6 -35
-5 -25 14 20 37 78 43 106 12z m256 0 c22 -12 26 -60 5 -60 -7 0 -19 7 -26 15
-7 8 -26 15 -43 15 -29 0 -30 0 -12 20 20 22 46 25 76 10z m-2905 -27 c-10
-10 -19 5 -10 18 6 11 8 11 12 0 2 -7 1 -15 -2 -18z m4741 -13 c-2 -52 -17
-52 -17 0 0 22 4 40 9 40 5 0 8 -18 8 -40z m-2846 15 c-1 -15 -24 -12 -29 3
-3 9 2 13 12 10 10 -1 17 -7 17 -13z m1394 5 c3 -5 -1 -10 -9 -10 -9 0 -16 5
-16 10 0 6 4 10 9 10 6 0 13 -4 16 -10z m-2959 -35 c4 -14 4 -44 0 -65 -4 -24
-2 -40 3 -40 18 0 50 42 64 84 15 45 40 55 45 17 6 -38 -5 -63 -49 -116 -47
-57 -38 -69 21 -26 23 16 56 33 73 37 18 3 51 18 75 31 26 16 42 20 42 13 0
-18 -100 -111 -164 -152 -6 -4 -8 -10 -4 -13 3 -4 34 8 68 25 33 17 87 36 118
41 31 6 61 15 67 20 12 12 45 12 45 -1 0 -16 -38 -50 -56 -50 -8 0 -25 -5 -37
-12 l-22 -12 25 -7 c14 -4 41 -7 60 -8 38 -1 84 -27 75 -42 -4 -5 -24 -9 -46
-9 -37 0 -109 -23 -109 -34 0 -3 26 -3 59 0 44 5 71 2 107 -11 62 -23 76 -35
124 -107 32 -49 36 -58 20 -58 -10 0 -45 20 -77 45 -33 24 -72 49 -87 55 -41
15 -131 13 -146 -5 -19 -23 -3 -35 46 -35 31 0 60 -8 89 -26 44 -25 155 -137
155 -155 0 -18 -37 -9 -76 20 -76 56 -152 91 -198 91 -43 0 -43 0 -97 82 -30
45 -60 84 -66 86 -23 7 -14 -36 18 -83 41 -60 36 -96 -6 -40 -44 61 -87 105
-97 99 -4 -3 6 -25 24 -50 33 -47 33 -64 -1 -42 -32 20 -46 -1 -30 -45 12 -33
11 -37 -19 -75 -18 -22 -32 -44 -32 -48 0 -11 -130 -74 -152 -74 -23 0 -48 38
-48 71 0 32 40 83 81 105 29 14 39 47 19 59 -17 11 -11 25 11 25 35 0 19 33
-21 41 -58 12 -80 68 -40 104 27 25 12 38 -28 24 -39 -13 -45 -31 -32 -99 15
-77 -5 -117 -76 -155 -70 -38 -84 -27 -49 39 14 26 23 52 20 56 -3 5 -21 2
-40 -7 -57 -27 -61 -7 -18 76 27 53 49 81 80 102 51 35 65 59 61 102 -4 45 25
49 48 6 16 -31 17 -32 30 -14 8 10 15 35 15 54 2 36 4 65 7 89 4 23 30 12 40
-18 7 -20 7 -41 1 -66 -7 -23 -7 -40 -1 -46 14 -14 42 30 42 67 0 89 31 141
46 80z m-416 -5 c0 -5 -4 -10 -10 -10 -5 0 -10 5 -10 10 0 6 5 10 10 10 6 0
10 -4 10 -10z m3204 -29 c25 -28 1 -45 -42 -29 -36 14 -40 23 -14 37 25 15 37
13 56 -8z m-3056 -5 c9 -10 -11 -58 -31 -70 -20 -13 -63 7 -81 37 -17 27 18
50 67 44 21 -3 41 -8 45 -11z m2068 -1 c6 -16 -31 -54 -53 -55 -16 0 -17 42
-1 58 17 17 47 15 54 -3z m724 -34 c151 -39 233 -80 228 -115 -4 -26 -15 -25
-107 13 -130 55 -221 73 -366 73 -170 0 -294 -31 -469 -118 -54 -27 -76 -25
-76 6 0 17 18 29 83 60 103 48 232 90 306 101 93 13 317 2 401 -20z m-1933 -7
c4 -13 -84 -47 -99 -38 -12 7 10 34 37 45 26 11 57 7 62 -7z m3823 -10 c0 -25
-30 -74 -45 -74 -21 0 -19 17 5 47 11 14 20 32 20 40 0 8 5 11 10 8 6 -3 10
-13 10 -21z m96 -10 c5 -20 -2 -38 -32 -82 -40 -58 -69 -76 -80 -48 -4 11 9
33 40 66 25 27 46 58 46 70 0 29 18 25 26 -6z m-2016 -76 c41 -10 116 -39 167
-64 51 -24 103 -44 116 -44 17 0 48 -23 100 -72 144 -140 229 -284 286 -483
30 -107 41 -201 41 -347 -1 -295 -72 -542 -215 -743 -48 -68 -137 -155 -158
-155 -8 0 -28 15 -44 33 -15 17 -42 45 -59 60 -29 26 -33 27 -79 17 l-48 -11
-44 43 c-24 23 -43 47 -43 53 0 5 43 43 96 84 182 142 238 232 279 446 62 326
-92 692 -344 820 -94 47 -188 68 -286 62 -116 -6 -195 -33 -304 -105 -157
-102 -240 -209 -271 -347 -19 -81 -40 -226 -40 -276 0 -28 -6 -51 -15 -59 -19
-16 -233 -80 -267 -80 -23 0 -27 5 -30 33 -7 73 22 374 43 452 43 155 143 336
275 495 55 65 61 70 90 65 24 -4 49 4 105 34 211 112 439 144 649 89z m-1852
16 c12 -4 22 -13 22 -20 0 -8 -2 -14 -4 -14 -2 0 -26 -4 -55 -10 -79 -15 -111
8 -48 35 36 16 52 17 85 9z m3662 -48 c0 -35 36 -74 79 -87 32 -10 44 -9 71 5
46 23 69 20 80 -9 12 -31 6 -65 -32 -178 -25 -75 -28 -95 -21 -143 l8 -56 27
21 27 21 -8 -27 c-5 -16 -18 -51 -29 -79 -18 -45 -19 -54 -7 -70 8 -11 15 -28
15 -39 0 -11 5 -27 10 -35 8 -13 11 -11 16 8 6 22 24 31 24 12 0 -24 -45 -50
-86 -48 -27 1 -53 -6 -76 -20 -62 -38 -69 -32 -80 67 -2 16 -15 32 -35 44 -32
19 -33 18 -67 -2 -45 -28 -56 -26 -56 7 0 42 17 52 91 52 52 0 73 5 99 23 41
27 55 49 47 71 -6 15 -9 15 -36 1 -37 -19 -104 -21 -99 -2 3 6 23 23 46 35 45
25 92 84 92 115 0 15 -11 9 -51 -27 -47 -43 -79 -58 -79 -38 0 5 11 19 25 32
33 31 89 119 81 127 -3 3 -33 -20 -67 -52 l-60 -58 -72 5 c-82 6 -160 37 -185
76 -8 13 -16 42 -16 65 -1 50 -18 57 -37 15 -21 -48 -37 -46 -41 4 -2 30 -7
43 -18 43 -11 0 -14 -9 -12 -37 4 -38 -14 -108 -26 -108 -4 0 -7 22 -8 50 -1
51 -27 104 -47 97 -7 -2 -11 -18 -9 -35 3 -31 -10 -43 -23 -22 -4 7 -13 6 -27
-1 -11 -6 -36 -9 -56 -5 -19 3 -55 0 -79 -7 -42 -11 -46 -10 -64 13 -50 63
-44 90 20 90 52 0 59 4 84 43 35 54 100 56 154 5 22 -21 27 -21 91 -10 52 8
72 17 87 37 18 22 33 27 105 35 187 22 230 17 230 -24z m-2843 -73 c-3 -10 -5
-4 -5 12 0 17 2 24 5 18 2 -7 2 -21 0 -30z m1652 -95 c1 -87 -11 -100 -36 -41
-10 26 -12 38 -4 41 6 2 11 14 11 27 0 12 3 37 7 56 10 52 21 9 22 -83z m91
68 c0 -16 -18 -31 -27 -22 -8 8 5 36 17 36 5 0 10 -6 10 -14z m-1718 -16 c13
0 18 -8 18 -29 0 -30 -21 -54 -28 -33 -7 22 -20 13 -27 -18 -10 -46 -25 -25
-21 29 4 58 13 78 29 62 6 -6 19 -11 29 -11z m-783 -85 c34 -25 76 -48 94 -52
44 -8 60 -22 46 -39 -13 -16 -66 -18 -103 -4 -14 5 -45 35 -71 67 -69 89 -60
97 34 28z m2505 -9 c-5 -14 -54 -52 -54 -42 0 23 23 56 39 56 14 0 19 -5 15
-14z m496 -41 c13 -16 12 -16 -35 -28 -11 -3 -35 -10 -53 -16 -30 -9 -36 -7
-65 20 l-32 29 40 -6 c22 -3 51 -1 65 5 36 14 66 13 80 -4z m-2390 -15 c0 -5
-7 -7 -15 -4 -8 4 -15 8 -15 10 0 2 7 4 15 4 8 0 15 -4 15 -10z m-1160 -92 c0
-61 -15 -55 -23 9 -3 26 -9 57 -12 68 -6 18 -4 17 14 -4 15 -17 21 -37 21 -73z
m1239 69 c12 -16 5 -27 -18 -27 -24 0 -44 16 -37 29 10 15 41 14 55 -2z
m-1177 -103 c1 -55 -15 -92 -65 -145 -19 -20 -37 -44 -40 -53 -4 -9 -16 -16
-27 -16 -13 0 -20 -7 -20 -20 0 -11 -2 -20 -5 -20 -17 0 -121 32 -128 39 -16
16 0 39 43 61 49 25 58 44 34 71 -14 15 -16 24 -8 37 19 29 43 26 50 -5 11
-46 15 -46 54 -8 36 35 37 36 33 11 -4 -18 -1 -26 9 -26 18 0 38 41 38 80 0
77 30 72 32 -6z m2966 48 c2 -7 -2 -10 -12 -6 -9 3 -16 11 -16 16 0 13 23 5
28 -10z m-2783 -44 c15 -12 42 -44 60 -72 18 -28 53 -72 79 -97 25 -26 46 -54
46 -63 0 -39 -125 56 -192 145 -14 20 -42 44 -62 53 -19 9 -38 21 -41 26 -22
35 67 42 110 8z m404 -19 c50 -40 78 -75 67 -86 -8 -8 -125 67 -136 87 -28 53
2 52 69 -1z m1449 19 c7 -7 12 -40 12 -80 0 -38 4 -68 10 -68 6 0 9 29 8 70
-3 92 2 96 93 81 94 -15 167 -51 237 -116 63 -58 99 -116 131 -212 30 -89 54
-238 42 -260 -5 -10 -7 -30 -4 -45 4 -23 0 -29 -28 -41 -29 -12 -36 -12 -50
-1 -8 8 -30 14 -47 14 -30 0 -32 -2 -32 -35 0 -32 3 -35 29 -35 16 0 34 6 40
14 7 8 21 12 31 9 11 -3 27 1 36 8 24 20 36 -7 28 -66 -7 -56 -78 -211 -103
-224 -22 -12 -101 34 -101 60 0 10 -6 19 -14 19 -20 0 -26 78 -8 112 9 19 21
28 36 28 20 0 25 -7 30 -42 7 -46 -6 -70 -26 -50 -20 20 -29 14 -22 -15 8 -34
20 -42 46 -35 13 3 24 -1 30 -11 13 -25 34 -10 48 34 13 37 12 41 -8 54 -11 9
-22 25 -24 38 -2 12 -13 26 -25 32 -13 5 -23 15 -23 22 0 6 -9 14 -19 18 -11
3 -23 15 -26 26 -4 10 -13 19 -21 19 -18 0 -18 -15 2 -34 25 -25 13 -50 -26
-56 -26 -4 -34 -10 -32 -22 1 -9 -7 -22 -18 -28 -13 -7 -20 -21 -20 -40 0 -17
-5 -30 -13 -30 -18 0 -69 -58 -62 -71 5 -7 14 -3 27 10 10 12 23 19 28 16 4
-3 32 -6 61 -8 42 -3 65 -11 102 -37 51 -37 55 -45 31 -78 -25 -36 -52 -28
-64 18 -6 22 -16 40 -23 40 -7 0 -43 -27 -80 -60 -70 -62 -76 -64 -140 -54
-52 9 -63 33 -38 82 19 38 19 38 0 50 -16 10 -19 25 -20 105 -2 89 -2 87 -10
-43 -12 -207 -20 -231 -63 -191 -13 13 -33 20 -51 18 -27 -2 -30 1 -27 23 2
14 8 27 13 28 5 2 9 16 9 31 0 16 5 42 11 59 6 17 9 43 7 59 -4 25 -5 26 -13
8 -5 -11 -13 -23 -19 -27 -7 -5 -7 -8 2 -8 6 0 12 -7 12 -16 0 -20 -24 -44
-45 -44 -14 0 -14 -3 0 -29 18 -35 8 -45 -35 -36 -23 5 -30 3 -30 -9 0 -9 6
-16 14 -16 7 0 19 -7 26 -15 11 -14 6 -23 -35 -65 -27 -28 -54 -50 -60 -50
-21 0 -63 55 -100 130 -21 41 -48 89 -61 106 -16 20 -27 54 -34 102 -5 39 -19
86 -30 104 -24 40 -27 120 -5 138 12 10 12 15 0 33 -11 19 -11 36 1 117 26
181 152 376 276 430 100 44 203 61 226 38z m1382 -48 c0 -12 -11 -32 -25 -45
-19 -20 -35 -25 -72 -25 -26 -1 -59 -7 -73 -15 -33 -19 -40 -18 -40 3 0 29 34
49 94 54 41 3 63 11 79 26 27 27 37 28 37 2z m-3873 -34 c23 -20 25 -26 15
-39 -19 -23 -72 -30 -99 -12 -22 15 -31 53 -16 68 15 16 73 6 100 -17z m1635
-16 c-2 -16 -8 -30 -13 -30 -12 0 -11 17 1 41 15 26 17 24 12 -11z m-2708 6
c18 -7 43 -30 55 -50 21 -33 22 -44 16 -116 -8 -94 3 -121 60 -140 30 -10 41
-9 73 7 30 14 38 25 42 53 4 30 11 36 50 51 25 9 100 22 166 28 146 14 238 3
283 -35 29 -24 68 -95 82 -149 4 -16 15 -56 25 -88 16 -54 16 -59 1 -75 -16
-15 -17 -14 -17 19 0 66 -63 212 -110 254 -26 24 -129 33 -249 24 -53 -5 -106
-8 -118 -9 -13 0 -46 -24 -82 -59 -66 -65 -101 -79 -155 -61 -40 13 -96 72
-96 100 0 11 5 40 12 64 10 38 9 50 -7 85 -25 57 -39 65 -114 71 l-66 5 45 17
c57 21 63 21 104 4z m1661 -16 c30 -31 31 -40 25 -151 -2 -35 2 -54 19 -78 21
-29 21 -51 1 -51 -20 0 -79 62 -85 89 -4 17 0 44 9 66 23 53 20 73 -14 105
-16 15 -30 33 -30 39 0 22 47 10 75 -19z m272 -22 c26 -27 52 -69 69 -113 15
-38 36 -83 46 -100 22 -36 22 -45 4 -45 -25 0 -73 66 -100 137 -15 39 -42 88
-61 111 -40 46 -42 52 -17 52 10 0 36 -19 59 -42z m-1768 -37 c6 -10 8 -42 4
-70 -5 -40 -2 -55 11 -70 22 -25 1 -40 -22 -17 -16 15 -35 149 -25 169 7 13
22 8 32 -12z m1946 -5 c20 -15 36 -40 44 -68 7 -23 24 -64 39 -91 14 -26 22
-50 19 -54 -13 -12 -68 51 -99 112 -17 33 -39 71 -49 84 -35 44 -4 55 46 17z
m575 17 c0 -5 -5 -15 -10 -23 -8 -12 -10 -11 -10 8 0 12 5 22 10 22 6 0 10 -3
10 -7z m-2440 -54 c0 -24 -4 -38 -10 -34 -5 3 -10 22 -10 41 0 19 5 34 10 34
6 0 10 -18 10 -41z m4936 2 c24 -73 72 -79 134 -16 68 69 90 58 90 -47 0 -57
13 -67 51 -39 118 88 133 87 142 -11 10 -111 23 -119 104 -68 49 31 77 37 88
20 4 -6 1 -42 -6 -81 -17 -94 -8 -102 70 -64 89 42 118 20 87 -68 -15 -43 -16
-52 -4 -64 11 -11 21 -11 42 -3 39 15 92 12 106 -5 24 -29 5 -41 -63 -42 -66
-1 -103 -14 -123 -41 -6 -9 -16 -12 -23 -8 -9 6 -8 13 5 27 23 25 5 48 -19 25
-25 -26 -44 -19 -130 43 -45 32 -115 80 -155 106 -55 37 -74 55 -80 79 -10 37
-28 40 -45 6 -18 -36 -47 -39 -47 -4 0 78 -98 86 -118 10 -11 -39 -30 -44 -38
-10 -9 37 13 75 54 93 43 20 35 36 -18 37 -49 1 -100 30 -100 57 0 11 -9 21
-20 24 -13 3 -20 14 -20 28 0 13 -3 31 -6 40 -5 13 -2 16 12 13 11 -2 24 -17
30 -37z m-620 -96 c23 -87 27 -426 6 -545 -15 -84 -39 -175 -54 -205 -6 -11
-15 -31 -19 -45 -12 -33 -2 42 11 85 5 17 14 48 20 70 16 55 39 274 40 366 0
42 -6 114 -14 160 -35 202 -29 263 10 114z m-1909 33 c-3 -7 -5 -2 -5 12 0 14
2 19 5 13 2 -7 2 -19 0 -25z m-17 -73 c0 -14 -4 -25 -10 -25 -11 0 -14 33 -3
43 11 11 13 8 13 -18z m-1941 -23 c39 -19 60 -53 79 -125 22 -86 15 -120 -29
-142 -48 -25 -94 -20 -244 24 -79 24 -133 19 -211 -21 -49 -24 -74 -19 -74 15
0 14 -7 30 -15 37 -24 20 -17 38 19 50 38 12 59 33 85 81 28 53 62 71 168 90
108 20 169 18 222 -9z m1703 -77 c25 -35 -6 -46 -42 -15 -13 11 -26 20 -29 20
-12 0 -41 58 -41 80 0 20 6 17 53 -26 28 -26 55 -53 59 -59z m-517 58 c26 -29
65 -120 65 -151 -1 -12 -11 -5 -36 23 -20 22 -40 49 -45 60 -6 11 -16 31 -24
44 -13 24 -10 51 6 51 4 0 20 -12 34 -27z m135 -75 c0 -5 14 -27 32 -49 25
-32 32 -49 31 -80 -4 -81 -26 -106 -37 -41 -4 20 -20 67 -38 104 -32 68 -33
113 -3 88 8 -7 15 -17 15 -22z m587 -55 c-2 -16 -4 -3 -4 27 0 30 2 43 4 28 2
-16 2 -40 0 -55z m2773 15 c0 -23 -104 -111 -127 -106 -21 4 -31 38 -10 38 20
0 93 71 102 98 6 22 7 22 21 5 7 -10 14 -26 14 -35z m-3642 -102 l12 -94 -35
-76 c-42 -93 -65 -101 -65 -23 0 28 7 73 15 99 8 26 17 76 20 110 3 35 9 74
11 88 10 46 30 -3 42 -104z m-435 62 c-37 -43 -167 -87 -218 -74 -40 10 -29
22 38 40 87 24 136 44 166 68 23 18 26 18 29 3 2 -9 -5 -26 -15 -37z m897 32
c21 -21 28 -92 11 -118 -9 -16 -35 40 -46 101 -8 42 4 48 35 17z m-2476 -6
c10 -27 7 -71 -7 -83 -18 -14 -27 -4 -27 28 0 58 20 90 34 55z m399 -34 c44
-41 50 -52 41 -67 -16 -26 -95 -85 -108 -80 -46 17 -54 17 -59 -3 -11 -42 -51
-17 -73 46 -18 52 1 98 51 122 85 42 87 41 148 -18z m1460 30 c7 -29 -10 -163
-26 -203 -17 -38 -56 -71 -135 -112 -79 -41 -82 -22 -10 65 51 63 115 177 141
253 8 23 23 22 30 -3z m3643 8 c4 -7 0 -16 -11 -22 -10 -6 -28 -20 -40 -31
-28 -26 -72 -55 -85 -55 -24 0 -7 40 28 68 67 52 94 62 108 40z m-3346 -45
c28 -43 40 -103 23 -103 -9 0 -57 82 -72 123 -18 46 16 33 49 -20z m2990 37
c0 -14 -50 -93 -64 -102 -24 -16 -27 12 -6 44 44 64 70 85 70 58z m-220 -39
c-6 -12 -15 -21 -21 -21 -5 0 -2 11 7 25 20 30 31 26 14 -4z m2206 -29 c-12
-11 -18 7 -10 30 l8 23 4 -23 c2 -13 1 -26 -2 -30z m554 33 c0 -9 -7 -30 -16
-46 -22 -43 -12 -63 27 -55 28 5 30 4 19 -10 -8 -8 -27 -22 -44 -29 -17 -8
-38 -20 -47 -26 -23 -17 -47 -5 -66 36 -17 36 -12 58 9 37 19 -19 36 -14 43
11 9 29 55 97 66 97 5 0 9 -7 9 -15z m-5075 -24 c5 -18 -9 -71 -20 -71 -3 0
-10 12 -16 26 -11 31 -3 64 16 64 8 0 16 -8 20 -19z m-2447 -54 c-3 -39 -5
-42 -33 -42 -20 -1 -31 -6 -33 -18 -2 -10 -15 -22 -28 -27 -13 -5 -24 -16 -24
-25 0 -8 -8 -15 -17 -15 -24 0 -53 30 -53 55 0 26 19 44 97 96 72 47 96 41 91
-24z m1482 55 c0 -17 -58 -89 -88 -111 -40 -28 -180 -83 -216 -85 -16 0 -31 4
-33 11 -5 12 90 68 177 104 30 12 75 37 100 55 47 34 60 40 60 26z m85 -19
c-12 -51 -74 -149 -119 -191 -42 -38 -86 -55 -86 -33 0 5 25 40 55 77 30 38
73 93 95 122 45 58 66 67 55 25z m3258 12 c-3 -9 -8 -14 -10 -11 -3 3 -2 9 2
15 9 16 15 13 8 -4z m704 -25 c13 0 23 -5 23 -11 0 -6 11 -8 29 -4 23 5 29 2
34 -15 3 -13 10 -19 17 -15 12 7 80 -31 80 -46 0 -5 12 -9 26 -9 23 0 25 -3
20 -25 -8 -33 -74 -135 -86 -135 -6 0 -7 11 -3 28 13 49 9 86 -10 90 -17 4
-21 -1 -32 -52 -7 -34 -18 -26 -35 26 -13 42 -24 52 -45 44 -12 -4 -12 -11 0
-46 11 -30 12 -47 5 -61 -15 -28 -40 -24 -40 6 0 30 -26 85 -40 85 -6 0 -10
-16 -10 -35 0 -43 -21 -47 -41 -7 -14 27 -14 27 -17 -23 -4 -54 -14 -72 -49
-86 -27 -10 -29 -22 -8 -39 13 -11 25 -10 68 5 l52 17 95 -40 c52 -22 151 -62
220 -89 119 -46 129 -48 215 -46 101 2 109 -2 152 -74 44 -75 9 -114 -83 -94
-46 11 -53 15 -56 39 -3 25 -7 27 -43 26 -22 -1 -58 -5 -80 -9 -46 -8 -116 10
-423 108 -170 54 -193 64 -199 85 -4 17 -10 21 -22 16 -38 -16 -61 -16 -61 -1
0 8 7 17 15 21 8 3 15 13 15 22 0 12 -6 10 -31 -10 -32 -27 -69 -35 -69 -14 0
7 14 27 32 45 18 18 27 33 20 33 -7 0 -12 9 -12 20 0 11 -7 20 -15 20 -18 0
-143 -67 -172 -93 -11 -10 -29 -17 -40 -15 -34 6 -18 33 37 62 30 16 88 48
129 73 41 24 86 46 100 50 45 11 114 58 131 88 9 16 28 32 44 36 16 4 36 14
45 22 30 27 76 46 86 36 5 -5 19 -9 32 -9z m-5769 -12 c14 -14 16 -64 2 -73
-15 -9 -43 41 -35 65 7 23 16 25 33 8z m5540 -20 c6 -47 -107 -121 -144 -94
-23 17 -12 46 18 46 28 0 86 39 94 63 8 25 28 16 32 -15z m-5705 12 c34 0 53
-6 67 -20 30 -30 26 -44 -12 -35 -18 5 -49 9 -69 9 -35 1 -79 28 -79 49 0 5
10 7 23 3 12 -3 43 -6 70 -6z m5575 -17 c3 -20 -1 -23 -29 -23 -17 0 -51 -10
-76 -22 -31 -15 -46 -19 -54 -11 -29 29 57 83 126 79 23 -1 31 -6 33 -23z
m1918 -31 l-28 -27 7 25 c11 37 26 53 39 40 7 -7 2 -18 -18 -38z m74 10 c0
-17 -69 -96 -77 -88 -5 5 24 75 38 93 16 19 39 16 39 -5z m-5194 -44 c33 -55
51 -68 88 -68 70 0 344 -52 394 -76 29 -13 56 -24 60 -24 4 0 25 -14 45 -31
34 -28 87 -119 87 -149 0 -21 -24 -4 -43 31 -21 40 -62 79 -83 79 -18 0 -18
-19 1 -43 17 -24 29 -90 20 -117 -9 -30 -36 -21 -49 16 -12 34 -79 98 -113
108 -31 10 -30 -14 2 -62 27 -39 33 -100 13 -120 -20 -20 -28 -14 -28 19 0 31
-26 74 -69 112 -13 12 -37 35 -52 50 -26 26 -33 28 -71 21 -60 -10 -99 -6
-113 12 -10 15 -15 15 -46 -1 -19 -11 -59 -19 -91 -20 -40 -1 -73 -10 -109
-29 -41 -21 -54 -24 -61 -14 -6 10 -17 8 -49 -10 -49 -26 -58 -23 -35 14 23
33 15 39 -23 20 -50 -27 -55 -18 -17 29 21 25 36 45 34 45 -2 0 -18 -4 -36 -9
-17 -5 -32 -6 -32 -2 0 4 19 25 43 47 23 21 52 53 63 69 12 17 25 27 30 22 4
-4 9 -32 12 -62 4 -53 21 -83 40 -71 12 7 106 171 126 219 8 20 20 37 25 37 6
0 23 -19 37 -42z m-1642 16 c24 -24 19 -49 -24 -122 -57 -97 -55 -95 -118 -88
-90 11 -108 40 -65 105 20 31 42 49 85 68 32 14 63 32 69 39 15 18 34 18 53
-2z m4630 -6 c18 -25 12 -41 -13 -33 -20 6 -139 -22 -158 -36 -16 -14 -22 11
-10 39 12 25 47 37 154 51 6 0 19 -9 27 -21z m-4047 -21 c16 -18 49 -78 72
-133 106 -245 161 -333 232 -370 35 -17 38 -39 7 -48 -38 -10 -65 -7 -78 9 -7
8 -25 15 -41 15 -24 0 -28 4 -26 28 2 24 -2 27 -33 30 -46 4 -51 10 -40 56 l8
38 -54 -7 c-62 -7 -70 4 -24 32 39 23 38 36 -2 28 l-33 -7 30 29 c29 27 29 28
7 31 -12 2 -47 -8 -78 -22 -31 -14 -59 -26 -61 -26 -3 0 21 21 53 47 78 63 50
70 -57 14 -43 -23 -79 -40 -79 -37 0 2 33 28 73 58 61 45 69 53 49 56 -12 2
-43 -8 -68 -23 -66 -39 -77 -25 -16 20 46 35 63 55 47 55 -3 0 -37 -16 -76
-36 -80 -40 -82 -34 -9 22 101 77 40 61 -75 -20 -80 -56 -84 -61 -78 -87 8
-28 -12 -23 -26 7 -9 21 -9 31 3 48 18 29 202 173 257 203 59 31 82 29 116
-10z m6303 8 c0 -18 -73 -90 -78 -76 -5 16 47 91 63 91 8 0 15 -7 15 -15z
m-6587 -15 c20 -6 37 -17 37 -24 0 -20 -187 -176 -212 -176 -4 0 -17 9 -28 20
-40 40 -13 144 48 184 29 18 82 17 155 -4z m2049 -70 c4 -36 13 -91 19 -124
16 -89 -20 -106 -60 -28 -11 22 -38 54 -61 72 -22 17 -40 37 -40 43 1 27 95
109 120 104 11 -1 17 -21 22 -67z m432 64 c24 -9 19 -34 -6 -35 -13 0 -48 -8
-78 -18 -60 -20 -83 -18 -78 8 5 27 123 60 162 45z m1996 -11 c0 -10 -4 -23
-8 -30 -9 -15 -126 -73 -146 -73 -21 0 -46 28 -46 51 0 15 7 19 33 19 17 0 57
11 87 24 68 29 80 31 80 9z m2152 -15 c-7 -7 -12 -8 -12 -2 0 14 12 26 19 19
2 -3 -1 -11 -7 -17z m398 1 c0 -5 -17 -17 -37 -26 -21 -8 -41 -20 -45 -26 -10
-16 11 -37 36 -37 11 0 28 -5 36 -10 10 -7 -15 -8 -75 -4 -49 4 -94 10 -99 15
-6 6 -6 19 0 36 8 24 15 28 42 25 18 -1 49 7 70 17 41 22 72 27 72 10z m-7806
-63 c42 -39 44 -48 14 -75 -16 -16 -19 -23 -9 -34 13 -17 5 -47 -14 -47 -7 0
-24 -9 -38 -20 -29 -23 -89 -27 -106 -6 -16 19 -4 59 25 87 18 17 24 33 24 65
0 40 2 44 33 53 17 5 33 10 34 10 1 1 18 -14 37 -33z m77 11 c-13 -13 -26 -3
-16 12 3 6 11 8 17 5 6 -4 6 -10 -1 -17z m4951 -18 c-4 -36 -38 -65 -90 -77
-52 -12 -62 -9 -62 18 0 28 24 46 68 54 22 3 45 13 52 21 18 22 36 13 32 -16z
m-2014 4 c-2 -10 -28 -30 -58 -45 -66 -32 -70 -33 -70 -10 0 12 18 29 48 45
56 31 85 35 80 10z m3262 -3 c19 -19 29 -56 13 -48 -5 2 -21 10 -37 18 -26 13
-30 13 -48 -10 -12 -15 -17 -32 -14 -46 8 -29 -8 -39 -28 -18 -23 23 -20 58
10 93 31 37 74 41 104 11z m-367 -48 c-6 -24 -23 -30 -23 -9 0 13 21 39 26 34
2 -2 1 -13 -3 -25z m-2803 -44 c0 -9 9 -24 21 -32 24 -16 18 -36 -12 -36 -12
0 -17 4 -14 11 4 6 -2 19 -14 30 -14 13 -21 32 -21 57 l0 37 20 -25 c11 -14
20 -33 20 -42z m3482 42 c48 -37 70 -104 69 -201 -2 -94 3 -105 60 -134 16 -9
29 -22 29 -30 0 -19 -82 -60 -103 -52 -19 7 -49 74 -67 150 -7 31 -19 62 -27
68 -7 6 -13 24 -13 39 0 15 -9 35 -19 44 -11 10 -25 31 -32 48 -12 29 -11 32
19 59 38 34 51 36 84 9z m565 -32 c33 -23 43 -36 43 -57 0 -47 -21 -64 -81
-65 -48 -1 -54 -3 -59 -25 -3 -14 -12 -27 -19 -29 -10 -3 -11 3 -7 26 6 27 4
31 -23 40 -37 13 -44 56 -11 67 11 3 20 13 20 21 0 21 -27 17 -33 -6 -6 -24
-25 -26 -34 -4 -8 21 15 42 63 59 49 17 86 10 141 -27z m-3887 7 c0 -36 24
-89 65 -145 35 -48 43 -70 26 -70 -14 0 -87 86 -105 124 -16 34 -22 97 -9 109
13 14 23 6 23 -18z m-3445 5 c8 -13 -5 -13 -25 0 -13 8 -13 10 2 10 9 0 20 -4
23 -10z m6136 -24 c-10 -26 -21 -32 -34 -19 -4 3 3 17 15 30 26 28 32 25 19
-11z m-671 16 c0 -5 -17 -21 -37 -35 -46 -33 -60 -15 -17 20 29 23 54 30 54
15z m1159 -37 c33 -38 47 -75 37 -100 -9 -25 -24 -17 -37 22 -6 20 -25 49 -42
64 -28 26 -30 49 -2 49 7 0 27 -16 44 -35z m-81 -43 c1 -5 -7 -12 -20 -15 -30
-8 -82 23 -86 51 l-3 22 53 -25 c29 -13 54 -29 56 -33z m-4974 -20 c-4 -23
-10 -42 -14 -42 -12 0 -17 55 -8 81 14 37 30 8 22 -39z m-976 31 c-2 -12 -12
-18 -28 -18 -16 0 -26 6 -28 18 -3 13 3 17 28 17 25 0 31 -4 28 -17z m2961
-23 c24 -46 14 -55 -12 -11 -16 27 -22 51 -13 51 2 0 13 -18 25 -40z m3882
-62 c-12 -45 -21 -86 -21 -91 0 -5 14 -7 30 -5 62 9 27 -37 -54 -72 -70 -29
-89 -24 -98 25 -4 22 -4 49 -1 59 5 19 6 19 19 2 21 -30 39 -13 90 88 27 53
50 92 52 86 2 -5 -6 -47 -17 -92z m-5787 34 c-7 -46 -24 -47 -24 -2 0 38 10
64 22 52 5 -5 6 -27 2 -50z m5990 19 c-8 -38 4 -44 62 -26 27 8 53 15 57 15
19 0 -2 -24 -38 -45 -24 -13 -41 -30 -43 -43 -4 -24 -25 -28 -66 -12 -31 12
-31 15 -5 85 22 58 42 75 33 26z m-4234 -20 c5 -11 7 -26 4 -34 -4 -11 2 -16
17 -19 23 -3 48 -32 37 -43 -4 -4 -34 -9 -67 -12 -34 -3 -64 -10 -67 -14 -7
-12 -44 -11 -44 1 0 6 11 10 25 10 14 0 28 6 31 14 3 8 15 17 27 21 22 8 22 8
-2 12 -13 3 -28 0 -34 -6 -6 -6 -24 -11 -39 -11 -15 0 -28 -4 -28 -10 0 -18
-66 -11 -84 9 -16 18 -15 19 33 35 27 9 59 16 70 16 11 0 23 5 26 10 3 6 14
10 25 10 10 0 20 7 24 15 8 21 33 19 46 -4z m-1683 -23 c-3 -7 -5 -2 -5 12 0
14 2 19 5 13 2 -7 2 -19 0 -25z m4875 -41 c6 -23 18 -51 25 -62 18 -27 16 -35
-6 -35 -25 0 -38 17 -52 71 -22 82 9 106 33 26z m-4055 26 c6 -17 -133 -73
-180 -73 -24 0 -48 -36 -54 -79 -7 -53 10 -54 36 -2 21 40 48 58 64 42 6 -6 3
-38 -7 -88 -12 -60 -21 -83 -41 -98 -22 -19 -34 -45 -19 -45 3 0 48 14 100 31
58 20 94 37 94 45 0 8 -6 14 -13 14 -29 0 -35 20 -21 83 18 85 23 97 46 97 12
0 24 -12 34 -35 12 -31 19 -35 49 -35 32 0 35 -2 35 -30 0 -29 1 -30 23 -18
27 15 75 18 100 5 12 -5 23 -4 32 3 7 6 45 11 84 12 39 0 74 4 77 9 3 6 12 5
22 0 10 -6 23 -6 34 0 19 10 22 6 32 -33 4 -19 19 -34 45 -48 29 -14 41 -28
46 -50 4 -16 10 -30 15 -30 11 0 106 -94 119 -119 14 -26 14 -51 -1 -51 -6 0
-49 36 -94 80 -48 48 -101 89 -129 101 -72 32 -197 51 -251 39 -51 -12 -353
-100 -674 -197 -118 -35 -240 -71 -270 -79 -30 -8 -75 -21 -100 -29 -53 -17
-252 -59 -363 -76 -164 -25 -1210 13 -1440 53 -37 6 -72 17 -78 25 -14 16 -15
16 126 43 168 33 280 65 280 80 0 8 -67 44 -160 85 -161 72 -270 129 -281 147
-3 5 -2 14 4 20 7 7 25 3 57 -11 26 -12 56 -21 67 -21 11 0 22 -9 25 -20 3
-11 8 -20 12 -21 55 -7 118 -5 128 3 9 7 25 5 54 -6 54 -22 69 -38 69 -75 0
-38 13 -39 52 -6 16 14 33 25 38 25 4 0 18 -16 29 -36 21 -35 23 -36 79 -34
73 3 82 2 82 -9 0 -5 -24 -18 -52 -29 -57 -21 -65 -33 -49 -75 13 -33 30 -34
98 -5 49 20 53 24 53 54 0 28 4 33 26 36 15 2 34 14 43 28 15 23 15 24 -4 16
-74 -31 -74 -31 -92 -14 -15 16 -15 20 8 55 14 21 30 50 37 66 6 15 18 27 25
27 23 0 50 -38 49 -70 -1 -33 12 -39 26 -14 8 14 48 16 318 18 257 2 320 5
374 19 300 80 603 168 770 224 258 86 348 105 357 76z m-1787 -15 c0 -34 -15
-52 -39 -45 -14 3 -25 -3 -37 -22 l-18 -26 -8 34 c-8 29 -6 36 14 50 52 37 88
41 88 9z m2360 -21 c9 -12 33 -46 54 -74 26 -37 33 -53 23 -53 -25 0 -76 49
-92 87 -25 60 -15 85 15 40z m1180 13 c0 -5 -8 -14 -19 -19 -10 -6 -46 -55
-79 -109 -33 -54 -70 -109 -82 -122 l-21 -25 6 30 c15 69 143 255 176 255 10
0 19 -4 19 -10z m-3750 -22 c0 -19 -2 -20 -10 -8 -13 19 -13 30 0 30 6 0 10
-10 10 -22z m6145 14 c36 -25 69 -122 51 -150 -11 -18 -26 -14 -26 7 0 10 -13
45 -30 76 -33 63 -31 93 5 67z m-6215 -22 c0 -5 -5 -10 -11 -10 -5 0 -7 5 -4
10 3 6 8 10 11 10 2 0 4 -4 4 -10z m7430 2 c0 -16 -70 -91 -105 -112 -38 -23
-46 -53 -18 -69 10 -5 15 -13 11 -17 -11 -10 -118 36 -118 51 0 7 12 33 26 59
24 43 44 53 44 20 0 -26 30 -15 87 31 53 44 73 54 73 37z m-4020 -24 c0 -7
-23 -32 -50 -56 -61 -53 -69 -31 -10 28 41 41 60 50 60 28z m-3032 -35 c6 -60
-50 -125 -81 -94 -6 6 -28 11 -49 11 -57 0 -50 27 17 69 30 18 55 38 55 43 0
5 12 8 28 6 22 -2 28 -8 30 -35z m3272 12 c0 -19 -17 -22 -90 -19 -36 2 -69 3
-73 4 -5 0 -5 5 -2 10 3 6 25 11 48 11 23 1 56 5 72 8 35 8 45 5 45 -14z
m-3570 0 c0 -8 -4 -15 -10 -15 -5 0 -10 7 -10 15 0 8 5 15 10 15 6 0 10 -7 10
-15z m3050 7 c0 -13 -62 -68 -95 -85 -71 -36 -211 -87 -238 -87 -36 0 -67 16
-67 35 0 11 11 13 48 8 39 -4 63 1 141 32 51 21 114 53 140 70 46 33 71 42 71
27z m-3143 -36 c27 -19 57 -35 67 -37 32 -6 29 -25 -6 -39 -18 -6 -42 -16 -53
-20 -64 -27 -87 -22 -110 23 -20 39 -19 49 6 81 27 34 39 33 96 -8z m2790 18
c-3 -3 -12 -4 -19 -1 -8 3 -5 6 6 6 11 1 17 -2 13 -5z m4723 -23 c0 -6 -5 -13
-11 -17 -6 -3 -9 -19 -6 -34 6 -26 5 -27 -26 -21 -41 9 -42 35 -2 60 34 22 45
25 45 12z m-4215 -98 c168 -160 376 -252 647 -288 26 -3 50 -10 53 -15 12 -20
-47 -20 -161 -1 -190 32 -345 96 -474 195 -109 85 -202 196 -163 196 3 0 47
-39 98 -87z m315 78 c0 -18 -21 -23 -63 -15 l-42 8 45 7 c25 3 48 7 53 7 4 1
7 -2 7 -7z m-3960 -31 c-53 -45 -88 -52 -74 -16 7 19 58 44 89 45 16 0 14 -5
-15 -29z m3830 20 c0 -12 -17 -12 -45 0 -17 7 -15 9 13 9 17 1 32 -3 32 -9z
m4199 1 c20 -13 8 -26 -39 -41 -30 -10 -46 -11 -58 -3 -31 19 -19 38 28 44 25
3 47 7 50 7 3 1 11 -2 19 -7z m-1485 -37 c9 -35 -5 -49 -33 -35 -13 7 -21 22
-21 36 0 37 45 35 54 -1z m-5923 -34 c18 -10 27 -40 12 -40 -10 0 -43 32 -43
42 0 11 7 10 31 -2z m6039 0 c0 -5 -4 -10 -10 -10 -5 0 -10 5 -10 10 0 6 5 10
10 10 6 0 10 -4 10 -10z m-6180 -13 c0 -20 -58 -104 -87 -127 -23 -18 -28 -18
-53 -5 -16 8 -32 25 -36 37 -5 18 0 28 30 53 54 43 146 70 146 42z m3698 -68
c54 -97 35 -91 -62 19 -15 17 -16 25 -7 36 19 22 33 11 69 -55z m-628 41 c0
-5 -4 -10 -10 -10 -5 0 -10 5 -10 10 0 6 5 10 10 10 6 0 10 -4 10 -10z m60
-49 c0 -15 -25 -31 -47 -31 -29 0 -29 13 0 33 21 14 47 13 47 -2z m-235 -30
c7 -12 -12 -24 -25 -16 -11 7 -4 25 10 25 5 0 11 -4 15 -9z m280 -25 c0 -19
-89 -55 -137 -56 -15 0 -30 -4 -33 -10 -3 -5 -13 -10 -21 -10 -8 0 -14 5 -14
10 0 6 5 10 12 10 13 0 86 31 138 60 40 22 55 21 55 -4z m-215 -15 c0 -9 -24
-21 -41 -21 -5 0 -9 7 -9 15 0 9 9 15 25 15 14 0 25 -4 25 -9z m256 -26 c4 -8
15 -15 26 -15 41 0 12 -26 -67 -61 -16 -7 -33 -15 -37 -17 -5 -2 -8 1 -8 7 0
6 7 11 15 11 7 0 18 6 22 14 4 8 17 15 27 17 28 6 31 27 5 31 -12 2 -24 9 -27
16 -6 18 37 15 44 -3z m-218 -136 c65 -50 126 -87 178 -108 43 -18 88 -36 99
-41 11 -5 34 -12 50 -16 27 -7 28 -8 7 -12 -36 -6 -103 18 -237 85 -91 46
-150 87 -202 141 -47 48 -58 75 -19 45 13 -10 69 -52 124 -94z m292 35 c0 -8
-7 -14 -15 -14 -15 0 -21 21 -9 33 10 9 24 -2 24 -19z m147 -11 c2 -6 -4 -13
-14 -16 -10 -3 -32 -10 -50 -15 -27 -9 -31 -8 -26 5 6 16 61 44 77 39 6 -1 11
-7 13 -13z m73 -21 c0 -5 -17 -17 -37 -27 -21 -10 -46 -22 -55 -26 -10 -5 -25
-9 -33 -9 -8 0 -15 -4 -15 -9 0 -11 -37 -21 -45 -13 -3 4 16 17 42 29 26 13
62 32 78 42 31 21 65 27 65 13z m70 -32 c0 -5 -6 -10 -14 -10 -8 0 -18 5 -21
10 -3 6 3 10 14 10 12 0 21 -4 21 -10z m66 -25 c-22 -16 -46 -20 -46 -7 0 15
13 22 39 22 25 -1 25 -1 7 -15z m-226 -145 c0 -5 -4 -10 -9 -10 -6 0 -13 5
-16 10 -3 6 1 10 9 10 9 0 16 -4 16 -10z"/>
<path d="M12100 2520 c0 -13 11 -13 30 0 12 8 11 10 -7 10 -13 0 -23 -4 -23
-10z"/>
<path d="M11875 2501 c-6 -6 -38 -24 -72 -41 -35 -17 -63 -34 -63 -39 0 -13
21 -26 63 -38 35 -11 39 -10 54 15 10 15 30 42 45 60 16 18 26 37 23 43 -8 12
-38 12 -50 0z"/>
<path d="M11862 2339 c2 -6 8 -10 13 -10 5 0 11 4 13 10 2 6 -4 11 -13 11 -9
0 -15 -5 -13 -11z"/>
<path d="M14167 2510 c-34 -40 -42 -81 -23 -118 28 -54 43 -63 95 -56 37 5 54
2 83 -16 56 -32 78 -24 111 39 15 30 37 66 50 79 22 23 22 24 2 38 -28 21 -40
12 -37 -26 4 -46 -39 -110 -73 -110 -37 0 -43 40 -15 108 22 53 23 55 5 68
-32 23 -45 17 -45 -21 0 -19 -4 -35 -10 -35 -5 0 -10 6 -10 13 0 23 -55 67
-82 67 -17 0 -35 -11 -51 -30z m72 -14 c7 -8 15 -30 18 -49 4 -27 1 -39 -16
-56 -49 -49 -87 31 -45 97 17 26 27 28 43 8z"/>
<path d="M13967 2519 c-21 -5 -47 -14 -58 -19 -22 -13 -26 -50 -4 -50 8 0 15
5 15 10 0 6 7 10 15 10 17 0 38 -69 33 -113 -3 -29 0 -32 26 -35 40 -5 52 10
36 47 -7 17 -16 31 -20 31 -4 0 -10 19 -14 42 -8 50 5 69 32 45 28 -25 44 -21
40 11 -2 22 -8 27 -33 29 -16 1 -47 -3 -68 -8z"/>
<path d="M13806 2464 c-3 -8 1 -26 10 -40 20 -29 10 -30 -34 -4 -42 26 -58 25
-87 -5 -59 -58 -8 -165 79 -165 25 0 66 41 66 66 0 20 9 17 29 -8 18 -22 41
-18 41 8 0 8 -9 31 -20 51 -11 21 -20 55 -20 75 0 35 -2 38 -29 38 -17 0 -31
-6 -35 -16z m-27 -90 c25 -32 26 -47 5 -69 -14 -14 -19 -14 -37 -2 -31 20 -41
41 -33 70 8 35 38 35 65 1z"/>
<path d="M14515 2449 c-4 -6 -5 -13 -1 -16 8 -8 -39 -95 -63 -117 -26 -24 -27
-42 -1 -56 17 -9 21 -6 34 23 7 19 30 57 50 85 41 60 43 67 17 82 -25 13 -28
13 -36 -1z"/>
<path d="M14080 2415 c0 -8 7 -15 15 -15 8 0 15 7 15 15 0 8 -7 15 -15 15 -8
0 -15 -7 -15 -15z"/>
<path d="M14617 2393 c-4 -3 -7 -17 -7 -29 0 -13 -9 -28 -20 -34 -11 -6 -20
-17 -20 -25 0 -7 -14 -25 -31 -38 -21 -17 -30 -30 -26 -41 11 -27 42 -19 54
14 10 28 38 49 49 38 2 -3 0 -27 -6 -53 -12 -54 -5 -65 36 -57 14 2 24 0 24
-7 0 -6 -7 -11 -15 -11 -17 0 -21 -35 -5 -45 6 -4 28 11 49 33 21 22 55 45 75
52 40 13 47 34 17 50 -14 7 -31 6 -62 -5 -61 -22 -73 -14 -65 38 3 23 8 52 12
64 9 31 -39 77 -59 56z"/>
<path d="M13557 2332 c-28 -29 -34 -56 -17 -82 7 -11 27 -15 67 -15 45 0 58
-3 58 -15 0 -9 -13 -17 -35 -20 -35 -6 -41 -20 -18 -47 17 -20 33 -15 73 21
28 26 35 39 30 55 -11 36 -34 51 -80 51 -53 0 -63 12 -30 34 15 10 22 22 19
31 -9 23 -38 18 -67 -13z"/>
<path d="M14540 2340 c0 -5 7 -10 16 -10 8 0 12 5 9 10 -3 6 -10 10 -16 10 -5
0 -9 -4 -9 -10z"/>
<path d="M13516 2193 c-3 -3 -6 -17 -6 -30 0 -31 -27 -30 -42 2 -15 33 -42 28
-46 -8 -3 -24 0 -27 25 -27 31 -1 74 -32 92 -67 15 -28 37 -29 51 -3 15 27 5
40 -30 40 -36 0 -48 27 -20 47 11 8 20 18 20 23 0 12 -36 31 -44 23z"/>
<path d="M13387 2092 c-10 -10 -17 -27 -17 -36 0 -15 5 -17 26 -12 29 8 55 -8
48 -29 -3 -8 -20 -17 -37 -20 -64 -14 -108 -65 -56 -65 35 0 102 -22 129 -43
23 -17 25 -17 37 -1 20 27 11 38 -33 44 -52 7 -51 29 4 49 53 19 56 45 7 61
-20 7 -45 25 -57 41 -26 34 -30 35 -51 11z"/>
<path d="M14756 2096 c-42 -6 -71 -16 -74 -25 -6 -18 18 -31 44 -25 28 7 42
-15 21 -31 -21 -15 -22 -49 -1 -66 13 -11 19 -8 42 22 15 19 44 53 65 76 59
64 43 72 -97 49z"/>
<path d="M14889 1958 c-15 -11 -47 -22 -72 -25 -56 -7 -62 -23 -33 -83 24 -51
37 -58 61 -33 17 16 17 18 -4 31 -41 28 -22 48 69 72 34 9 41 15 38 33 -4 29
-27 31 -59 5z"/>
<path d="M13315 1865 c-14 -13 -25 -32 -25 -43 0 -24 30 -56 66 -69 71 -27 71
-27 30 -31 -21 -2 -52 2 -68 9 -36 15 -53 1 -44 -35 5 -19 13 -26 31 -26 14 0
26 -7 30 -19 6 -21 -3 -50 -16 -52 -5 -1 -13 -3 -19 -4 -5 -1 -14 -3 -20 -4
-5 0 -10 -15 -10 -32 0 -30 1 -31 33 -24 41 10 73 10 115 0 33 -8 33 -8 30 26
-3 32 -5 34 -35 31 -30 -3 -33 -1 -33 25 0 41 13 55 46 51 27 -3 29 -1 32 37
2 22 10 55 18 73 19 42 11 66 -30 92 -46 28 -101 26 -131 -5z m115 -24 c15
-29 12 -49 -9 -60 -24 -13 -77 3 -85 26 -17 42 72 74 94 34z"/>
<path d="M14938 1818 c-16 -16 -28 -33 -28 -38 0 -18 -33 -28 -59 -19 -33 13
-45 -1 -37 -45 9 -45 20 -52 46 -26 25 25 67 26 75 2 7 -24 54 -47 68 -33 16
16 -2 51 -29 51 -31 0 -33 34 -3 50 16 9 19 19 17 47 -4 46 -16 48 -50 11z"/>
<path d="M14916 1661 c-4 -7 -5 -15 -2 -18 9 -9 19 4 14 18 -4 11 -6 11 -12 0z"/>
<path d="M14832 1603 c-15 -28 4 -66 27 -58 15 5 24 -1 36 -24 42 -82 125 -62
125 30 0 60 -12 76 -42 62 -44 -21 -59 -23 -95 -8 -44 18 -40 19 -51 -2z m145
-59 c10 -26 -14 -41 -35 -21 -15 16 -15 19 -2 27 21 14 30 12 37 -6z"/>
<path d="M14828 1453 c-2 -5 -4 -33 -4 -63 1 -45 4 -55 20 -58 30 -6 42 15 22
37 -19 21 -14 41 10 41 8 0 14 -9 14 -20 0 -31 30 -37 50 -10 11 15 23 21 34
17 23 -9 20 -32 -6 -50 -19 -12 -21 -18 -10 -28 21 -22 46 2 56 53 14 71 8 77
-67 71 -42 -4 -67 -2 -71 6 -8 12 -43 15 -48 4z"/>
<path d="M14807 1313 c-4 -3 -7 -15 -7 -25 0 -13 8 -18 28 -18 16 0 37 -6 47
-14 18 -13 18 -14 -3 -25 -11 -6 -38 -15 -59 -19 -51 -11 -49 -32 6 -59 24
-12 55 -33 68 -45 24 -23 25 -23 39 -3 13 18 13 21 -3 32 -9 7 -25 13 -34 13
-10 0 -20 4 -23 8 -9 15 9 30 51 42 48 15 78 42 70 63 -3 8 -27 17 -56 20 -28
3 -61 13 -73 22 -24 16 -41 19 -51 8z"/>
<path d="M14733 1118 c-51 -57 -27 -95 53 -84 41 5 58 -4 34 -19 -5 -3 -10
-19 -10 -36 0 -42 -28 -38 -79 11 -22 22 -45 40 -51 40 -5 0 -17 -12 -27 -27
-10 -16 -23 -32 -30 -36 -18 -11 -16 -47 2 -47 9 0 15 9 15 25 0 18 5 25 20
25 21 0 27 -19 10 -36 -18 -18 16 -40 35 -24 17 14 45 7 45 -12 0 -7 -9 -19
-20 -26 -24 -15 -26 -30 -4 -39 16 -6 66 45 94 98 8 16 28 47 44 69 28 40 29
41 10 61 -16 18 -27 20 -66 16 -49 -6 -74 6 -38 18 23 7 25 16 8 33 -17 17
-21 15 -45 -10z"/>
<path d="M14560 887 c0 -7 12 -24 26 -38 14 -13 42 -45 61 -71 19 -27 41 -48
49 -48 13 0 13 3 2 19 -30 42 -138 151 -138 138z"/>
<path d="M15990 2556 c-5 -8 -30 -21 -55 -31 -51 -19 -61 -38 -15 -29 25 6 32
2 47 -24 18 -31 69 -62 103 -62 10 0 30 5 43 11 19 9 31 7 55 -5 35 -18 78
-21 87 -6 3 5 -19 16 -49 25 -56 16 -96 54 -96 89 0 30 -99 56 -120 32z m108
-68 c-8 -24 -35 -32 -63 -20 -35 16 -26 26 25 29 28 2 40 -1 38 -9z"/>
<path d="M15566 2505 c-22 -22 -9 -45 25 -45 37 0 50 27 24 46 -24 18 -30 17
-49 -1z"/>
<path d="M16075 2330 c-45 -30 -111 -36 -135 -15 -20 18 -38 15 -26 -3 8 -14
94 -42 125 -42 37 0 91 36 91 60 0 25 -16 24 -55 0z"/>
<path d="M14060 2110 c0 -5 -18 -10 -39 -10 -27 0 -41 -5 -45 -16 -8 -20 2
-54 14 -54 5 0 22 -12 39 -26 17 -14 35 -23 41 -19 14 8 13 82 -1 91 -8 5 -6
10 5 16 9 5 14 13 11 19 -8 12 -25 12 -25 -1z"/>
<path d="M14283 2100 c-3 -10 -16 -26 -29 -35 -28 -18 -30 -32 -8 -56 15 -17
14 -19 -10 -25 -32 -8 -37 -49 -6 -59 11 -3 25 -15 30 -26 18 -33 80 -26 118
14 35 36 29 57 -14 57 -12 0 -36 3 -53 6 -28 6 -31 10 -31 45 0 33 4 41 25 49
28 11 31 20 13 38 -17 17 -29 15 -35 -8z"/>
<path d="M13910 2061 c0 -12 5 -21 10 -21 6 0 10 6 10 14 0 8 -4 18 -10 21 -5
3 -10 -3 -10 -14z"/>
<path d="M14330 2031 c0 -16 6 -21 26 -21 33 0 30 33 -4 38 -17 3 -22 -2 -22
-17z"/>
<path d="M13920 2009 c0 -31 19 -59 40 -59 32 0 34 20 4 51 -33 34 -44 36 -44
8z"/>
<path d="M13857 1990 c-4 -16 -12 -20 -38 -18 -28 3 -35 -2 -47 -26 -14 -27
-13 -30 8 -46 26 -20 18 -44 -11 -35 -10 4 -28 4 -38 0 -17 -5 -20 -14 -17
-53 2 -43 5 -47 30 -50 15 -2 39 4 53 13 18 12 28 14 36 6 6 -6 19 -11 29 -11
14 0 18 8 18 34 0 21 -6 36 -15 40 -16 6 -21 36 -6 36 15 0 32 66 25 94 -8 34
-20 41 -27 16z"/>
<path d="M14451 1909 c-32 -39 -32 -41 -15 -60 19 -21 20 -20 -18 -37 -33 -14
-37 -38 -8 -47 11 -4 28 -17 36 -31 24 -35 80 -33 117 5 41 42 33 65 -23 71
-60 7 -70 15 -70 56 0 26 4 34 18 34 25 0 31 7 25 31 -8 29 -24 23 -62 -22z"/>
<path d="M13970 1925 c-7 -8 -21 -15 -32 -15 -14 0 -19 -6 -16 -22 2 -17 9
-22 25 -20 24 3 28 -1 38 -45 6 -32 6 -33 -29 -33 l-36 0 0 -71 c0 -80 13 -88
43 -26 16 31 21 35 37 25 9 -6 25 -24 35 -40 9 -16 22 -27 28 -25 18 6 20 52
3 67 -20 16 -20 29 0 51 21 24 10 73 -22 93 -14 10 -24 26 -24 40 0 13 -7 27
-16 30 -21 8 -20 8 -34 -9z"/>
<path d="M14520 1871 c0 -21 21 -33 39 -22 10 6 9 12 -4 25 -22 21 -35 20 -35
-3z"/>
<path d="M14251 1799 c-32 -38 -32 -41 -16 -59 17 -19 17 -20 -1 -27 -40 -14
-46 -59 -10 -73 13 -5 28 -15 33 -23 4 -8 24 -17 42 -19 29 -4 40 0 69 28 40
39 37 64 -8 64 -16 0 -30 5 -30 10 0 6 -11 10 -25 10 -14 0 -28 7 -31 15 -10
25 5 62 27 68 13 4 20 12 17 24 -6 31 -32 24 -67 -18z"/>
<path d="M14320 1760 c0 -14 7 -20 23 -20 30 0 40 10 26 27 -18 20 -49 16 -49
-7z"/>
<path d="M13781 1725 l-31 -36 -22 21 c-29 27 -52 22 -56 -13 -6 -46 20 -74
75 -81 88 -11 165 -7 170 11 3 7 -3 9 -16 6 -17 -4 -21 -1 -21 21 0 35 -36
106 -54 106 -8 0 -28 -16 -45 -35z m59 -25 c0 -5 -4 -10 -10 -10 -5 0 -10 5
-10 10 0 6 5 10 10 10 6 0 10 -4 10 -10z"/>
<path d="M13995 1630 c-4 -6 5 -10 19 -10 14 0 26 5 26 10 0 6 -9 10 -19 10
-11 0 -23 -4 -26 -10z"/>
<path d="M14125 1577 c-11 -7 -22 -13 -24 -14 -2 -2 8 -15 22 -29 l27 -26 19
23 c19 23 19 24 1 42 -22 20 -19 19 -45 4z"/>
<path d="M14360 1551 c0 -18 26 -31 38 -19 19 19 14 28 -13 28 -14 0 -25 -4
-25 -9z"/>
<path d="M14196 1492 c-3 -6 -1 -31 6 -56 l12 -46 51 0 c51 0 52 0 65 39 16
50 8 62 -43 60 -23 -1 -52 2 -63 6 -12 4 -25 2 -28 -3z"/>
<path d="M13677 1483 c-13 -13 -7 -32 21 -62 15 -16 53 -87 85 -156 46 -100
55 -129 47 -145 -17 -31 -12 -50 13 -50 32 0 48 18 35 39 -8 13 0 36 32 101
24 47 51 102 61 122 11 20 19 41 19 46 0 4 14 24 31 43 29 32 31 33 44 16 16
-22 29 -6 20 23 -10 31 -46 34 -141 12 -80 -19 -89 -20 -125 -5 -22 8 -50 12
-63 9 -14 -3 -28 -2 -31 4 -7 11 -38 13 -48 3z m293 -76 c0 -7 -16 -27 -35
-46 -19 -18 -35 -40 -35 -49 -1 -9 -9 -32 -19 -50 -20 -38 -23 -36 -60 38 -13
25 -32 60 -43 78 l-20 32 21 0 c11 0 23 -4 26 -10 11 -17 88 -11 119 9 30 20
46 19 46 -2z"/>
<path d="M14052 1340 c0 -14 2 -19 5 -12 2 6 2 18 0 25 -3 6 -5 1 -5 -13z"/>
<path d="M14206 1332 c-12 -19 6 -72 24 -72 47 0 54 73 8 78 -14 2 -29 -1 -32
-6z"/>
<path d="M14215 1180 c-3 -5 -2 -10 4 -10 5 0 13 5 16 10 3 6 2 10 -4 10 -5 0
-13 -4 -16 -10z"/>
<path d="M14250 1154 c-6 -14 -10 -28 -10 -32 0 -4 -10 -13 -21 -20 -14 -9
-18 -17 -11 -24 10 -10 86 21 83 35 0 4 -1 21 -1 37 0 38 -26 41 -40 4z"/>
<path d="M12250 940 c-57 -20 -106 -42 -107 -47 -2 -6 3 -16 12 -23 8 -7 15
-19 15 -27 0 -34 -43 -152 -61 -169 -19 -17 -26 -44 -11 -44 5 0 28 6 53 14
24 8 71 22 104 32 73 21 105 47 105 86 0 37 -9 35 -53 -7 -45 -44 -80 -47 -75
-7 2 19 9 28 26 30 25 4 57 45 47 62 -3 5 -17 7 -31 4 -31 -8 -32 13 -3 50 24
30 45 33 71 9 13 -11 22 -13 29 -6 13 13 8 75 -6 79 -5 1 -57 -15 -115 -36z"/>
<path d="M11943 840 c-43 -19 -53 -36 -33 -56 14 -14 -24 -161 -47 -186 -9
-10 -27 -18 -41 -18 -24 0 -25 1 -18 61 3 33 15 81 25 105 12 27 16 46 10 50
-12 7 -109 -15 -127 -29 -10 -8 -9 -14 5 -29 15 -16 15 -25 5 -64 -19 -70 -15
-100 14 -123 45 -36 111 -23 161 31 12 13 32 64 47 117 14 52 35 104 46 116
23 24 26 45 8 44 -7 0 -32 -9 -55 -19z"/>
<path d="M12025 749 c-16 -29 -16 -33 0 -48 15 -15 17 -14 35 9 23 29 22 63
-2 68 -11 2 -23 -8 -33 -29z"/>
<path d="M11619 755 c-3 -3 -50 -12 -104 -20 -54 -8 -100 -17 -103 -20 -3 -3
1 -16 8 -30 12 -22 11 -31 -10 -78 -13 -28 -37 -66 -52 -82 -15 -17 -28 -35
-28 -39 0 -10 190 0 235 12 32 9 61 53 51 78 -5 13 -14 10 -48 -15 -68 -50
-106 -35 -73 28 18 35 18 35 45 19 17 -11 22 -10 30 2 19 29 5 39 -32 25 -29
-11 -24 41 6 60 18 12 29 13 51 5 39 -15 57 -6 53 27 -3 25 -18 40 -29 28z"/>
<path d="M10860 696 c0 -20 -14 -58 -33 -92 -25 -46 -40 -61 -65 -69 -60 -18
-27 -30 103 -38 119 -7 132 -6 171 14 90 43 123 128 70 178 -20 19 -41 24
-123 31 -54 5 -104 9 -110 10 -8 0 -13 -13 -13 -34z m184 -26 c15 -15 -3 -77
-30 -104 -30 -29 -89 -45 -107 -27 -9 9 -5 25 17 67 39 74 53 87 85 79 14 -4
30 -10 35 -15z"/>
<path d="M11221 711 c-12 -8 -12 -12 -2 -25 11 -13 9 -27 -14 -83 -15 -38 -39
-78 -53 -90 -23 -18 -24 -22 -11 -28 9 -3 41 -5 70 -3 l54 3 6 46 c8 56 43
137 66 154 9 7 13 17 9 23 -8 14 -105 16 -125 3z"/>
<path d="M8845 1798 c-33 -18 -94 -42 -135 -54 -60 -17 -76 -26 -78 -43 -3
-19 1 -21 46 -21 53 0 80 -19 103 -75 16 -37 26 -525 11 -525 -5 0 -34 11 -63
24 -117 53 -269 53 -377 -2 -115 -57 -218 -194 -242 -322 -33 -174 10 -332
120 -441 79 -77 150 -103 263 -97 92 5 135 23 230 94 31 24 61 44 67 44 5 0
10 -30 12 -67 4 -82 -21 -80 248 -25 22 4 36 14 38 25 3 14 -5 17 -52 17 -97
0 -90 -58 -96 774 -4 630 -7 721 -20 723 -8 1 -42 -12 -75 -29z m-227 -714
c26 -7 70 -31 97 -52 78 -59 85 -90 82 -347 -2 -199 -3 -212 -25 -250 -13 -23
-44 -54 -70 -70 -43 -27 -55 -30 -132 -30 -76 0 -91 3 -138 30 -168 93 -254
328 -192 527 55 178 193 248 378 192z"/>
<path d="M26210 1789 c-41 -21 -99 -46 -128 -55 -50 -15 -73 -36 -58 -52 4 -4
30 -7 57 -8 90 -2 84 50 87 -663 1 -405 -1 -638 -8 -655 -6 -18 -25 -33 -56
-46 -86 -37 -56 -45 174 -45 187 0 212 2 212 16 0 11 -18 21 -58 32 -79 22
-102 48 -113 134 -5 37 -9 356 -8 708 0 352 0 648 -1 658 0 23 -12 20 -100
-24z"/>
<path d="M20610 1779 c-36 -17 -90 -40 -120 -50 -50 -18 -69 -32 -70 -51 0 -5
22 -8 49 -8 42 0 53 -4 70 -26 21 -26 21 -34 21 -656 0 -433 -3 -636 -11 -650
-6 -11 -31 -29 -55 -40 -82 -36 -55 -43 175 -43 179 -1 211 1 209 13 -2 9 -27
21 -58 29 -72 18 -96 35 -104 74 -3 17 -6 151 -6 297 l0 266 53 51 c84 81 187
98 288 48 72 -37 113 -98 129 -192 16 -95 10 -492 -8 -514 -7 -8 -29 -23 -48
-32 -67 -32 -38 -38 172 -39 162 -1 199 2 199 13 0 8 -26 21 -63 33 -97 30
-96 25 -102 333 l-5 260 -29 62 c-62 135 -204 210 -347 183 -73 -14 -114 -36
-180 -98 l-59 -54 -2 408 c-3 354 -5 409 -18 411 -8 1 -44 -11 -80 -28z"/>
<path d="M6197 1780 c-20 -6 -56 -19 -78 -31 -50 -25 -156 -132 -206 -208 -60
-90 -113 -269 -113 -383 l0 -38 -58 0 c-68 0 -89 -13 -98 -57 l-6 -32 73 -3
74 -3 3 -325 c3 -359 1 -373 -55 -396 -18 -8 -33 -21 -33 -29 0 -13 29 -15
195 -15 163 0 195 2 195 14 0 15 -12 20 -71 30 -20 4 -45 16 -55 27 -18 20
-19 44 -22 360 l-3 339 109 0 109 0 23 49 c26 57 20 80 -16 57 -17 -12 -50
-16 -123 -16 l-100 0 -7 36 c-17 90 21 340 63 412 41 70 84 96 164 100 66 4
70 3 100 -27 17 -18 38 -30 45 -27 13 5 44 94 44 127 0 9 -6 22 -14 28 -19 16
-94 22 -139 11z"/>
<path d="M19575 1734 c-81 -12 -135 -26 -135 -35 0 -5 -6 -9 -13 -9 -26 0
-160 -71 -218 -116 -66 -50 -143 -138 -186 -211 -77 -132 -114 -322 -95 -490
37 -321 230 -540 541 -615 74 -17 107 -19 236 -15 161 6 249 23 361 73 80 35
172 92 183 113 14 25 43 200 35 212 -9 15 -29 -5 -63 -65 -59 -106 -221 -217
-362 -251 -142 -33 -318 -12 -425 50 -148 86 -273 268 -314 455 -20 96 -24
275 -7 373 39 223 183 388 387 443 91 24 257 24 330 0 145 -49 266 -147 355
-288 79 -127 88 -107 55 116 -10 71 -23 133 -29 139 -7 7 -16 5 -29 -6 -18
-16 -24 -15 -114 28 -52 25 -109 48 -127 51 -17 4 -31 10 -31 13 0 22 -249 48
-335 35z"/>
<path d="M2177 1723 c-137 -3 -169 -6 -174 -18 -8 -23 13 -42 68 -60 70 -23
76 -42 49 -139 -28 -102 -139 -397 -215 -576 -20 -47 -42 -101 -50 -120 -22
-58 -124 -280 -138 -301 -24 -34 -28 -27 -157 281 -29 69 -66 156 -82 195 -17
38 -30 78 -30 90 0 23 129 333 204 492 24 50 38 65 74 85 33 17 44 28 42 43
-3 19 -11 20 -168 20 -91 0 -171 -2 -177 -4 -7 -2 -13 -11 -13 -21 0 -12 17
-25 55 -40 63 -26 71 -42 56 -113 -20 -87 -117 -327 -133 -327 -5 0 -11 8 -15
18 -3 9 -30 73 -59 142 -86 206 -90 243 -27 280 25 15 34 26 31 42 l-3 22
-225 -3 c-232 -3 -261 -8 -221 -42 10 -8 44 -21 75 -28 84 -19 80 -12 273
-465 l84 -198 -44 -102 c-24 -55 -69 -158 -98 -229 -36 -84 -59 -126 -68 -125
-19 4 -127 242 -281 618 -24 58 -67 161 -96 230 -85 203 -90 247 -34 270 39
16 54 35 43 55 -8 14 -38 16 -234 17 l-224 1 -3 -26 c-3 -23 2 -27 52 -41 103
-30 136 -77 249 -356 31 -74 126 -304 212 -510 87 -206 167 -400 180 -430 60
-148 82 -177 111 -148 8 8 71 148 139 312 69 163 130 306 136 318 13 24 0 51
169 -347 61 -143 117 -267 126 -275 31 -32 66 22 168 260 27 63 72 169 101
235 79 180 154 353 180 415 179 421 224 511 269 540 27 16 36 28 34 44 -3 24
12 23 -211 19z"/>
<path d="M24797 1560 c-14 -11 -35 -36 -47 -55 l-21 -35 22 -40 c32 -56 62
-74 94 -58 29 16 75 75 75 97 -1 22 -67 111 -84 111 -7 0 -25 -9 -39 -20z"/>
<path d="M3539 1273 c-18 -27 -73 -89 -122 -140 -49 -50 -86 -96 -82 -102 3
-6 31 -11 61 -11 l54 0 0 -287 c0 -161 5 -308 11 -333 15 -66 47 -107 106
-136 46 -23 62 -26 130 -22 84 4 166 34 211 78 32 30 15 47 -26 26 -88 -45
-206 -40 -253 11 l-24 25 -3 319 -3 319 125 0 c68 0 132 3 141 6 17 7 55 83
55 109 0 12 -6 12 -35 -1 -24 -10 -73 -14 -160 -14 l-125 0 0 100 c0 118 -11
127 -61 53z"/>
<path d="M5070 1125 c-47 -24 -107 -46 -135 -50 -89 -13 -97 -51 -10 -53 25 0
57 -7 70 -16 42 -28 47 -70 43 -377 -3 -314 -2 -309 -65 -336 -18 -7 -33 -19
-33 -26 0 -9 51 -12 215 -12 191 0 215 2 215 16 0 12 -14 18 -57 22 -69 7
-104 31 -120 83 -7 25 -12 123 -12 264 -1 215 0 228 22 270 45 90 117 110 209
61 l57 -31 40 47 c23 25 41 50 41 56 0 19 -80 86 -113 95 -64 17 -134 -21
-203 -111 -27 -37 -46 -54 -49 -45 -2 7 -6 51 -7 97 -2 47 -7 86 -13 87 -5 2
-48 -17 -95 -41z"/>
<path d="M7538 1124 c-50 -25 -110 -47 -140 -52 -44 -6 -53 -11 -53 -27 0 -17
8 -20 49 -22 57 -3 93 -23 107 -61 6 -16 9 -140 7 -323 -3 -325 -2 -319 -65
-346 -18 -7 -33 -19 -33 -26 0 -9 51 -12 217 -11 176 1 218 4 218 14 0 9 -23
18 -68 25 -82 13 -103 32 -117 104 -13 72 -13 435 1 486 13 48 43 83 86 101
48 20 75 17 138 -16 l56 -30 26 28 c51 55 57 69 39 97 -25 38 -90 77 -129 77
-51 0 -89 -24 -159 -102 l-63 -71 -5 97 c-3 54 -9 99 -15 100 -5 1 -49 -17
-97 -42z"/>
<path d="M21785 1130 c-61 -34 -94 -46 -192 -66 -27 -5 -31 -31 -5 -37 9 -3
35 -5 57 -6 31 -1 46 -8 68 -31 l27 -30 0 -300 c0 -164 -4 -310 -9 -323 -6
-15 -25 -31 -51 -41 -81 -32 -47 -40 181 -39 175 0 214 3 214 14 0 9 -17 16
-49 21 -27 4 -62 12 -79 19 -52 22 -57 51 -57 325 0 269 4 294 60 334 50 36
98 36 165 0 l60 -32 38 42 c20 24 37 50 37 59 0 23 -57 77 -101 95 -68 28
-138 -12 -232 -134 l-27 -35 0 87 c0 92 -5 118 -24 117 -6 0 -42 -18 -81 -39z"/>
<path d="M23610 1131 c-41 -21 -101 -44 -132 -51 -45 -10 -58 -17 -58 -32 0
-15 8 -18 53 -18 93 0 91 7 95 -334 4 -337 1 -354 -60 -388 -23 -13 -43 -28
-45 -33 -2 -7 69 -10 214 -9 120 1 220 3 222 3 2 1 -2 7 -8 15 -6 7 -31 16
-56 19 -55 8 -100 30 -110 54 -10 25 -19 470 -11 527 9 55 49 107 110 139 31
16 59 21 116 21 87 0 138 -21 188 -78 54 -62 62 -111 62 -380 0 -133 -4 -247
-9 -255 -5 -8 -24 -22 -42 -30 -17 -9 -31 -20 -30 -26 0 -6 73 -10 194 -10
159 0 192 2 192 14 0 9 -20 19 -55 27 -97 22 -97 22 -102 306 -5 212 -8 251
-27 309 -48 151 -201 247 -349 219 -82 -15 -121 -37 -197 -109 -26 -25 -46
-37 -50 -31 -4 6 -6 41 -5 78 3 88 2 92 -12 92 -7 -1 -47 -18 -88 -39z"/>
<path d="M24820 1140 c-30 -16 -85 -41 -122 -55 -76 -30 -91 -55 -33 -55 25 0
44 -8 60 -25 l25 -24 0 -308 c0 -338 -2 -348 -58 -372 -19 -9 -32 -21 -30 -30
3 -12 32 -14 197 -13 190 1 242 10 190 31 -13 5 -41 13 -63 16 -21 3 -49 17
-62 30 l-24 24 0 390 c0 365 -2 422 -19 421 -3 -1 -31 -14 -61 -30z"/>
<path d="M2711 1139 c-67 -11 -151 -58 -191 -107 -35 -43 -65 -115 -57 -137
10 -25 70 -55 111 -55 l39 0 -9 53 c-13 84 -9 126 17 153 70 75 243 40 296
-59 13 -24 17 -59 17 -146 l1 -114 -89 -18 c-198 -40 -306 -89 -353 -161 -24
-36 -28 -51 -28 -118 0 -69 3 -80 29 -114 77 -101 241 -102 404 -2 l57 35 23
-29 c55 -70 144 -89 230 -50 62 28 56 48 -14 46 -102 -2 -114 40 -114 393 0
270 -4 296 -54 349 -42 45 -91 69 -167 82 -72 11 -73 11 -148 -1z m229 -582
c0 -108 -3 -128 -22 -167 -40 -77 -145 -110 -231 -72 -69 31 -98 93 -83 177
17 91 162 180 299 184 l37 1 0 -123z"/>
<path d="M4320 1137 c-31 -7 -76 -25 -101 -39 -95 -56 -195 -197 -214 -303
-13 -73 -7 -198 13 -261 39 -126 135 -231 249 -274 48 -18 74 -21 148 -18 79
3 100 9 165 40 111 54 198 134 172 160 -6 6 -31 -5 -70 -30 -154 -100 -295
-94 -415 18 -75 68 -127 199 -127 318 l0 45 283 -5 c155 -3 293 -1 305 3 29
11 28 34 -3 111 -75 184 -229 274 -405 235z m95 -48 c56 -16 139 -100 155
-158 14 -52 9 -68 -25 -81 -27 -10 -387 -14 -397 -4 -3 3 0 29 6 57 36 151
134 221 261 186z"/>
<path d="M6660 1139 c-163 -23 -312 -148 -366 -309 -27 -80 -26 -215 4 -300
40 -117 136 -217 252 -262 67 -26 213 -35 289 -19 115 25 227 101 289 198 35
55 72 178 72 240 0 154 -81 299 -214 385 -95 61 -204 83 -326 67z m192 -72
c127 -74 207 -262 195 -457 -9 -147 -65 -253 -161 -303 -60 -31 -175 -30 -236
1 -133 69 -215 213 -227 397 -12 187 55 327 179 378 66 27 191 19 250 -16z"/>
<path d="M22740 1138 c-244 -35 -418 -274 -380 -522 35 -231 208 -376 448
-376 148 0 256 44 351 145 94 99 135 236 114 374 -15 95 -49 165 -116 237
-108 116 -252 166 -417 142z m186 -66 c133 -68 216 -269 200 -481 -10 -133
-61 -229 -149 -277 -45 -25 -63 -29 -127 -29 -91 1 -153 29 -219 100 -127 138
-168 403 -87 564 29 56 100 123 148 139 53 18 186 9 234 -16z"/>
<path d="M25577 1139 c-157 -23 -300 -145 -359 -306 -29 -80 -31 -244 -4 -323
35 -103 114 -193 205 -237 81 -39 215 -44 309 -13 110 37 223 127 208 166 -4
11 -19 6 -63 -25 -82 -55 -149 -75 -229 -68 -231 22 -380 326 -284 581 27 71
88 140 137 157 89 29 232 -17 299 -96 19 -22 41 -48 49 -58 26 -30 35 -10 35
78 0 77 -2 85 -25 103 -45 36 -181 56 -278 41z"/>
<path d="M26921 1139 c-125 -21 -252 -138 -303 -279 -54 -149 -34 -324 52
-450 74 -109 166 -160 300 -167 69 -4 97 -1 149 17 111 37 242 138 227 175 -5
15 -9 15 -39 -5 -175 -117 -324 -117 -446 0 -80 76 -137 218 -129 317 l3 38
292 0 c210 0 295 3 304 12 17 17 4 70 -37 151 -73 147 -211 217 -373 191z m78
-49 c83 -24 160 -108 169 -186 4 -42 4 -43 -34 -54 -25 -7 -106 -10 -219 -8
-205 3 -189 -6 -158 96 36 119 137 182 242 152z"/>
<path d="M15536 1029 c-22 -17 -26 -28 -26 -73 0 -75 33 -135 90 -163 55 -29
84 -29 111 -2 19 19 21 30 16 85 -5 73 -29 119 -77 151 -41 29 -79 29 -114 2z
m108 -51 c30 -81 38 -140 23 -156 -33 -32 -81 32 -93 122 -12 82 42 108 70 34z"/>
<path d="M15755 973 c17 -42 34 -177 24 -195 -13 -25 -1 -40 46 -57 46 -16 54
-8 28 27 -11 15 -22 37 -25 49 -13 50 19 32 102 -55 47 -51 94 -92 103 -92 19
0 22 29 8 76 -25 81 -35 148 -23 152 7 2 12 12 12 22 0 12 -13 21 -45 30 -25
7 -48 11 -50 8 -3 -2 4 -22 15 -43 21 -41 26 -85 11 -85 -6 0 -35 34 -67 75
-37 50 -68 81 -91 90 -46 20 -57 19 -48 -2z"/>
<path d="M16120 876 c0 -4 9 -19 20 -34 10 -15 28 -59 38 -99 17 -65 18 -75 4
-94 -8 -11 -11 -24 -6 -29 5 -5 44 -17 87 -28 150 -39 215 19 155 138 -30 58
-99 104 -185 124 -38 9 -78 19 -90 22 -13 4 -23 3 -23 0z m192 -93 c14 -16 31
-38 37 -50 15 -29 14 -86 -1 -101 -15 -15 -45 -16 -54 -1 -12 20 -44 161 -38
170 10 16 30 9 56 -18z"/>
<path d="M16440 796 c0 -7 6 -19 14 -25 21 -17 76 -172 73 -206 -2 -29 0 -30
53 -37 65 -8 78 0 50 32 -21 25 -27 70 -9 70 6 0 44 -34 84 -75 54 -55 80 -75
99 -75 14 0 26 4 26 9 0 10 -30 50 -78 104 -32 36 -33 40 -17 57 48 53 -22
110 -172 140 -120 24 -123 24 -123 6z m218 -68 c13 -11 16 -44 4 -51 -29 -19
-104 35 -87 63 8 12 62 4 83 -12z"/>
<path d="M16074 755 c-7 -27 18 -65 42 -65 19 0 26 34 13 64 -16 34 -47 34
-55 1z"/>
<path d="M16832 724 c-28 -20 -28 -56 0 -131 29 -78 61 -108 131 -124 50 -11
62 -10 92 4 58 28 57 82 -2 185 -17 30 -38 50 -66 63 -51 23 -125 25 -155 3z
m115 -32 c24 -19 76 -143 71 -170 -2 -10 -14 -18 -30 -20 -33 -4 -48 18 -78
111 -18 54 -19 71 -10 82 16 19 20 19 47 -3z"/>
</g>
</svg>
